<svg width="78" height="78" viewBox="0 0 78 78" fill="none" xmlns="http://www.w3.org/2000/svg">
<circle cx="39" cy="39" r="38.5" fill="#FEFEFE" stroke="#D9D9D9"/>
<g clip-path="url(#clip0_278_3542)">
<path d="M41.3301 45.5374C45.1025 43.9749 46.894 39.65 45.3314 35.8775C43.7688 32.1051 39.4439 30.3136 35.6714 31.8762C31.899 33.4388 30.1076 37.7637 31.6701 41.5362C33.2327 45.3086 37.5576 47.1 41.3301 45.5374Z" fill="#1F9875"/>
<path d="M52.7204 43.572L51.9668 42.9773C52.9377 41.7456 53.4508 40.268 53.4508 38.7066C53.4508 37.1453 52.9377 35.6677 51.9668 34.4349L52.7204 33.8413C53.826 35.2447 54.4111 36.9269 54.4111 38.7066C54.4111 40.4864 53.8271 42.1675 52.7204 43.5709V43.572Z" fill="#1F9875"/>
<path d="M59.1736 45.9926L58.4199 45.3979C59.9421 43.4677 60.7455 41.1538 60.7455 38.7063C60.7455 36.2588 59.941 33.9448 58.4199 32.0146L59.1736 31.4199C60.8303 33.5219 61.7059 36.0415 61.7059 38.7063C61.7059 41.3711 60.8303 43.8906 59.1736 45.9915V45.9926Z" fill="#1F9875"/>
<path d="M65.6277 48.4137L64.874 47.8191C66.9463 45.1892 68.0413 42.039 68.0413 38.7064C68.0413 35.3738 66.9463 32.2224 64.874 29.5937L65.6277 28.999C67.8346 31.7995 69.0016 35.1565 69.0016 38.7064C69.0016 42.2563 67.8356 45.6122 65.6277 48.4126V48.4137Z" fill="#1F9875"/>
<path d="M24.2805 43.5714C23.175 42.168 22.5898 40.4858 22.5898 38.7071C22.5898 36.9285 23.175 35.2463 24.2805 33.8418L25.0342 34.4354C24.0632 35.6682 23.5491 37.1447 23.5491 38.7071C23.5491 40.2695 24.0632 41.745 25.0342 42.9778L24.2805 43.5725V43.5714Z" fill="#1F9875"/>
<path d="M17.8272 45.9925C16.1705 43.8906 15.2949 41.371 15.2949 38.7072C15.2949 36.0435 16.1705 33.5228 17.8272 31.4209L18.5809 32.0145C17.0587 33.9458 16.2553 36.2597 16.2553 38.7072C16.2553 41.1547 17.0598 43.4676 18.5809 45.3989L17.8272 45.9936V45.9925Z" fill="#1F9875"/>
<path d="M11.3729 48.4131C9.16598 45.6137 8 42.2567 8 38.7069C8 35.157 9.16598 31.8 11.3729 28.9995L12.1265 29.5942C10.0553 32.2229 8.95929 35.3743 8.95929 38.7069C8.95929 42.0394 10.0543 45.1908 12.1265 47.8195L11.3729 48.4142V48.4131Z" fill="#1F9875"/>
</g>
<defs>
<clipPath id="clip0_278_3542">
<rect width="61" height="19.4136" fill="white" transform="translate(8 29)"/>
</clipPath>
</defs>
</svg>
