<svg width="79" height="78" viewBox="0 0 79 78" fill="none" xmlns="http://www.w3.org/2000/svg">
<circle cx="39.3184" cy="39" r="38.5" stroke="#D9D9D9"/>
<g clip-path="url(#clip0_278_3547)">
<path d="M38.2525 37.0071C43.1048 37.0071 47.0521 32.9683 47.0521 28.0036C47.0521 23.0388 43.1046 19 38.2525 19C33.4005 19 29.4531 23.0391 29.4531 28.0036C29.4531 32.9681 33.4005 37.0071 38.2525 37.0071Z" fill="#1F9875"/>
<path d="M44.3377 51.8604C44.3377 47.7759 47.0454 44.3265 50.7204 43.2917C48.3163 40.647 45.0609 39.0315 41.5443 38.7412C40.4924 38.654 39.385 38.6099 38.2525 38.6099C37.686 38.6099 37.1265 38.621 36.5763 38.6429C36.0263 38.6648 35.4864 38.6976 34.9605 38.7412C31.4191 39.0339 28.1418 40.6702 25.7328 43.3485C23.3256 46.0246 22 49.5021 22 53.1399C22 53.5361 22.314 53.8574 22.7013 53.8574H44.559C44.4144 53.2154 44.3377 52.547 44.3377 51.8607V51.8604Z" fill="#1F9875"/>
<path d="M53.0225 44.7212C49.1751 44.7212 46.0449 47.9241 46.0449 51.8607C46.0449 55.7973 49.1751 59.0002 53.0225 59.0002C56.8699 59.0002 60.0003 55.7975 60.0003 51.8607C60.0003 47.9239 56.8701 44.7212 53.0225 44.7212V44.7212ZM57.6517 50.2328L53.0168 55.0576C52.8466 55.2346 52.6212 55.3241 52.3956 55.3241C52.1887 55.3241 51.9811 55.2491 51.8151 55.0975L48.7743 52.3151C48.4162 51.987 48.3852 51.4237 48.7057 51.0571C49.0263 50.6904 49.5768 50.6587 49.9354 50.9865L52.3568 53.2025L56.4098 48.984C56.7467 48.6332 57.2982 48.6282 57.6411 48.9732C57.984 49.318 57.9889 49.8822 57.6519 50.2331L57.6517 50.2328Z" fill="#1F9875"/>
</g>
<defs>
<clipPath id="clip0_278_3547">
<rect width="38" height="40" fill="white" transform="translate(22 19)"/>
</clipPath>
</defs>
</svg>
