<svg width="137" height="46" viewBox="0 0 137 46" fill="none" xmlns="http://www.w3.org/2000/svg">
<path d="M0 15.8324H5.77706V33.0446H12.7522V15.8324H18.2994V9.96631H0V15.8324Z" fill="#2BCF9B"/>
<path d="M35.9254 25.0663C37.1727 24.9119 38.1246 24.5569 38.7975 24.0166C39.4704 23.4763 39.9628 22.8743 40.2746 22.2105C40.5865 21.5467 40.767 20.8829 40.8163 20.2037C40.8655 19.5244 40.8819 18.9687 40.8819 18.5365V9.98438H20.252V33.0627H27.4733V25.0972H28.2117L33.1518 33.0627H40.8654L35.8927 25.0663H35.9254ZM34.235 16.1129V19.9875H27.506V15.4182H34.235V16.1129Z" fill="#2BCF9B"/>
<path d="M46.0037 9.96631L41.6709 33.0446H48.8922L49.9098 27.6108H56.3268L57.3444 33.0446H64.5328L60.2329 9.96631H45.9873H46.0037ZM50.9437 22.1615L52.1746 14.7055H53.8979L55.3093 22.1615H50.9437Z" fill="#2BCF9B"/>
<path d="M86.6877 19.8151H72.3436V14.4893H79.5649V18.0399H86.7534V15.4001C86.7534 11.7724 84.8332 9.96631 80.9764 9.96631H70.8666C67.0426 9.96631 65.1224 11.7724 65.1224 15.3693L65.188 23.8905H79.5649V28.5216H72.2616V25.4959H65.106V27.6108C65.106 31.2385 67.0262 33.0446 70.8502 33.0446H86.6713V19.8151H86.6877Z" fill="#2BCF9B"/>
<path d="M104.101 9.96631V14.9833V18.9506H96.9455V14.9833V9.96631H91.2997H89.8555V18.9506V19.4601V33.0446H96.9455V26.7772V24.8939H104.101V26.7772V33.0446H109.583H111.322V9.96631H109.911H104.101Z" fill="#2BCF9B"/>
<path d="M113.981 30.8239C113.981 32.0588 115.048 33.0468 116.345 33.0468H134.037C135.35 33.0468 136.4 32.0434 136.4 30.8239V9.82959H113.981V30.8239ZM123.041 12.2686H126.881L130.328 24.1088H130.443V12.2686H133.462V30.7158H129.737L126.143 19.1998H126.028V30.7158H123.041V12.2686ZM116.903 12.2686H120.382V30.7158H116.903V12.2686Z" fill="white"/>
<path d="M10.6524 42.2302C10.9642 41.9986 11.2104 41.7208 11.3581 41.3811C11.5222 41.0415 11.6042 40.6865 11.6042 40.3006C11.6042 39.4978 11.3581 38.8804 10.8493 38.479C10.357 38.0776 9.65119 37.877 8.74853 37.877H4.85889V45.7344H6.5657V42.894H8.07568L9.88096 45.7344H12.0145L9.83178 42.5852C10.1436 42.508 10.4226 42.4 10.6524 42.2456V42.2302ZM8.38751 41.659H6.5657V39.1582H8.55159C8.9783 39.1582 9.30657 39.2663 9.50352 39.4824C9.70046 39.6985 9.79892 39.9918 9.79892 40.3932C9.79892 40.8254 9.68398 41.1496 9.4378 41.3657C9.19162 41.5664 8.84706 41.6744 8.40394 41.6744L8.38751 41.659Z" fill="white"/>
<path d="M21.73 45.7344H27.3264V44.4531H23.4204V42.4463H26.8177V41.1496H23.4368V39.1582H27.3264V37.877H21.73V45.7344Z" fill="white"/>
<path d="M41.0135 37.7228C39.6513 37.7228 38.6337 38.0624 37.9772 38.757C37.3043 39.4363 36.9761 40.4551 36.9761 41.7981C36.9761 43.1411 37.3207 44.2063 38.01 44.8701C38.6993 45.5339 39.7004 45.8581 41.0298 45.8581C41.3252 45.8581 41.6207 45.8426 41.9325 45.7963C42.2444 45.75 42.5398 45.6883 42.8352 45.5956C43.1306 45.503 43.3932 45.4104 43.6394 45.3023V43.8821C43.229 44.1291 42.8188 44.2989 42.4249 44.407C42.031 44.515 41.6535 44.5614 41.3089 44.5614C40.7345 44.5614 40.2585 44.4687 39.881 44.2835C39.5036 44.0982 39.2245 43.8049 39.0276 43.4036C38.847 43.0022 38.7486 42.4619 38.7486 41.7827C38.7486 41.1035 38.847 40.5477 39.0276 40.1464C39.2081 39.745 39.4871 39.4363 39.8646 39.251C40.2421 39.0658 40.7016 38.9732 41.2432 38.9732C41.6042 38.9732 41.9981 39.0349 42.4084 39.143C42.8187 39.251 43.229 39.4363 43.6394 39.6833V38.2631C43.229 38.0778 42.786 37.9389 42.3428 37.8463C41.8997 37.7382 41.4566 37.6919 41.0135 37.6919V37.7228Z" fill="white"/>
<path d="M58.8703 37.877L56.9336 41.0107L54.8821 37.877H52.7979L55.9489 42.2611V45.7344H57.6557V42.2919L60.61 37.877H58.8703Z" fill="white"/>
<path d="M73.2639 37.7228C71.9017 37.7228 70.8842 38.0624 70.2277 38.757C69.5548 39.4363 69.2266 40.4551 69.2266 41.7981C69.2266 43.1411 69.5711 44.2063 70.2604 44.8701C70.9497 45.5339 71.9509 45.8581 73.2803 45.8581C73.5757 45.8581 73.8711 45.8426 74.1829 45.7963C74.4948 45.75 74.7901 45.6883 75.0856 45.5956C75.381 45.503 75.6437 45.4104 75.8898 45.3023V43.8821C75.4795 44.1291 75.0692 44.2989 74.6753 44.407C74.2814 44.515 73.9039 44.5614 73.5593 44.5614C72.9848 44.5614 72.5089 44.4687 72.1314 44.2835C71.7539 44.0982 71.475 43.8049 71.2781 43.4036C71.0975 43.0022 70.999 42.4619 70.999 41.7827C70.999 41.1035 71.0975 40.5477 71.2781 40.1464C71.4586 39.745 71.7375 39.4363 72.115 39.251C72.4925 39.0658 72.9521 38.9732 73.4936 38.9732C73.8547 38.9732 74.2486 39.0349 74.6589 39.143C75.0692 39.251 75.4795 39.4363 75.8898 39.6833V38.2631C75.4795 38.0778 75.0363 37.9389 74.5932 37.8463C74.1501 37.7382 73.707 37.6919 73.2639 37.6919V37.7228Z" fill="white"/>
<path d="M87.4436 37.877H85.7368V45.7344H91.2512V44.4222H87.4436V37.877Z" fill="white"/>
<path d="M102.541 37.877H100.834V45.7344H102.541V37.877Z" fill="white"/>
<path d="M118.282 43.0947L114.211 37.877H112.685V45.7344H114.277V40.4086L118.478 45.7344H119.874V37.877H118.282V43.0947Z" fill="white"/>
<path d="M133.643 41.4442V42.741H135.202V44.3773C135.005 44.4545 134.792 44.5008 134.562 44.5316C134.332 44.5625 134.086 44.578 133.823 44.578C133.314 44.578 132.871 44.4853 132.51 44.3001C132.149 44.1148 131.87 43.8215 131.673 43.4047C131.476 43.0034 131.378 42.4477 131.378 41.7839C131.378 41.1201 131.476 40.5489 131.657 40.1475C131.837 39.7462 132.116 39.4529 132.494 39.2676C132.871 39.0824 133.314 38.9898 133.872 38.9898C134.332 38.9898 134.775 39.067 135.202 39.2059C135.628 39.3448 136.072 39.5301 136.548 39.7616V38.2642C136.104 38.079 135.629 37.9401 135.153 37.8474C134.677 37.7548 134.168 37.7085 133.659 37.7085C132.838 37.7085 132.116 37.8474 131.525 38.1407C130.918 38.434 130.459 38.8663 130.147 39.4838C129.819 40.0858 129.671 40.8576 129.671 41.7839C129.671 42.7101 129.835 43.5128 130.147 44.1148C130.475 44.7169 130.935 45.1491 131.525 45.4424C132.133 45.7203 132.838 45.8592 133.675 45.8592C134.233 45.8592 134.791 45.7975 135.333 45.6585C135.875 45.5196 136.4 45.3344 136.892 45.0874V41.4442H133.626H133.643Z" fill="white"/>
<path d="M113.981 8.54704L135.793 3.65352L135.612 2.95886C135.432 2.23332 134.644 1.77021 133.872 1.95545L114.884 6.21606C114.112 6.38587 113.62 7.12684 113.817 7.85238L113.997 8.54704H113.981Z" fill="#2BCF9B"/>
<path d="M119.118 4.44126L120.431 4.14796L120.185 3.16C120.152 3.0365 120.234 2.92844 120.349 2.89756L127.406 1.30756C127.537 1.27668 127.652 1.35387 127.685 1.46192L127.931 2.44989L129.244 2.15659L128.883 0.736391C128.752 0.22697 128.194 -0.0972111 127.652 0.0262848L119.528 1.84785C118.97 1.97135 118.642 2.4962 118.773 3.00562L119.134 4.42583L119.118 4.44126Z" fill="#2BCF9B"/>
</svg>
