<svg width="81" height="34" viewBox="0 0 81 34" fill="none" xmlns="http://www.w3.org/2000/svg">
<g clip-path="url(#clip0_1337_5605)">
<path d="M64.9316 20.5348C64.9316 21.2772 65.5352 21.8714 66.2682 21.8714H76.2749C77.0173 21.8714 77.6115 21.2678 77.6115 20.5348V7.91113H64.9316V20.5364V20.5348ZM70.0566 9.37719H72.2292L74.1787 16.4969H74.2442V9.37719H75.952V20.4709H73.845L71.8112 13.5461H71.7457V20.4709H70.0566V9.37719ZM66.5849 9.37719H68.5531V20.4709H66.5849V9.37719Z" fill="white"/>
<path d="M6.48734 27.3939C6.66358 27.2551 6.80238 27.0882 6.8866 26.8839C6.98018 26.6796 7.02541 26.4659 7.02541 26.2336C7.02541 25.7516 6.8866 25.3789 6.59807 25.1387C6.3189 24.8969 5.91963 24.7769 5.40963 24.7769H3.20898V29.5025H4.1744V27.7948H5.02908L6.05064 29.5025H7.2578L6.02257 27.6092C6.1988 27.5624 6.35633 27.4984 6.48734 27.4048V27.3955V27.3939ZM5.20688 27.0508H4.17596V25.5473H5.29889C5.54064 25.5473 5.72624 25.6128 5.83697 25.7423C5.9477 25.8717 6.00385 26.048 6.00385 26.2897C6.00385 26.5502 5.93835 26.7451 5.79954 26.8746C5.66073 26.9947 5.46578 27.0602 5.21467 27.0602L5.20532 27.0508H5.20688Z" fill="white"/>
<path d="M12.752 29.5025H15.918V28.7321H13.708V27.5249H15.6295V26.7451H13.7174V25.5473H15.918V24.7769H12.752V29.5025Z" fill="white"/>
<path d="M23.6583 24.6834C22.8878 24.6834 22.3123 24.8877 21.9411 25.3057C21.5606 25.7143 21.375 26.3272 21.375 27.1351C21.375 27.943 21.57 28.584 21.9599 28.9817C22.3498 29.381 22.9159 29.5759 23.6677 29.5759C23.8345 29.5759 24.0014 29.5666 24.1777 29.5385C24.3539 29.5104 24.5208 29.473 24.6877 29.4184C24.8545 29.3623 25.0027 29.3077 25.1431 29.2422V28.3875C24.9107 28.5357 24.6783 28.6386 24.4568 28.7025C24.2338 28.768 24.0201 28.7961 23.8252 28.7961C23.5008 28.7961 23.231 28.74 23.0173 28.6292C22.8036 28.5185 22.6461 28.3423 22.5338 28.1005C22.4324 27.8588 22.3763 27.5344 22.3763 27.1258C22.3763 26.7171 22.4324 26.3834 22.5338 26.1416C22.6352 25.8999 22.7943 25.7143 23.0079 25.6035C23.2216 25.4928 23.4821 25.4367 23.7878 25.4367C23.9921 25.4367 24.2151 25.4741 24.4475 25.538C24.6799 25.6035 24.9123 25.7143 25.1431 25.8624V25.0078C24.9107 24.897 24.6596 24.8128 24.4101 24.7567C24.1589 24.6912 23.9094 24.6631 23.6583 24.6631V24.6818V24.6834Z" fill="white"/>
<path d="M33.7585 24.7769L32.6637 26.6609L31.5033 24.7769H30.3242L32.1069 27.4126V29.501H33.0723V27.4314L34.7427 24.7769H33.7585Z" fill="white"/>
<path d="M41.9005 24.6834C41.13 24.6834 40.5545 24.8877 40.1833 25.3057C39.8028 25.7143 39.6172 26.3272 39.6172 27.1351C39.6172 27.943 39.8121 28.584 40.2021 28.9817C40.592 29.381 41.1581 29.5759 41.9098 29.5759C42.0767 29.5759 42.2436 29.5666 42.4199 29.5385C42.5961 29.5104 42.763 29.473 42.9299 29.4184C43.0967 29.3623 43.2449 29.3077 43.3853 29.2422V28.3875C43.1529 28.5357 42.9205 28.6386 42.699 28.7025C42.476 28.768 42.2623 28.7961 42.0674 28.7961C41.743 28.7961 41.4732 28.74 41.2595 28.6292C41.0458 28.5185 40.8883 28.3423 40.776 28.1005C40.6746 27.8588 40.6185 27.5344 40.6185 27.1258C40.6185 26.7171 40.6746 26.3834 40.776 26.1416C40.8774 25.8999 41.0365 25.7143 41.2501 25.6035C41.4638 25.4928 41.7243 25.4367 42.0299 25.4367C42.2343 25.4367 42.4573 25.4741 42.6897 25.538C42.9221 25.6035 43.1544 25.7143 43.3853 25.8624V25.0078C43.1529 24.897 42.9018 24.8128 42.6522 24.7567C42.4011 24.6912 42.1516 24.6631 41.9005 24.6631V24.6818V24.6834Z" fill="white"/>
<path d="M49.9205 24.7769H48.9551V29.5025H52.0743V28.7134H49.9205V24.7769Z" fill="white"/>
<path d="M58.4596 24.7769H57.4941V29.5025H58.4596V24.7769Z" fill="white"/>
<path d="M67.3633 27.9148L65.0613 24.7769H64.1973V29.5025H65.0972V26.3006L67.4741 29.5025H68.2632V24.7769H67.3633V27.9148Z" fill="white"/>
<path d="M76.0517 26.9212V27.701H76.9329V28.6851C76.8222 28.7319 76.7005 28.76 76.5711 28.7787C76.4416 28.7974 76.3013 28.8068 76.1531 28.8068C75.8646 28.8068 75.615 28.7506 75.4107 28.6399C75.2064 28.5292 75.0489 28.3514 74.9366 28.1018C74.8259 27.8601 74.7697 27.5263 74.7697 27.127C74.7697 26.7278 74.8259 26.3847 74.9272 26.1429C75.0286 25.9012 75.1877 25.7249 75.4014 25.6142C75.615 25.5035 75.8661 25.4473 76.1812 25.4473C76.4416 25.4473 76.6912 25.4941 76.9329 25.5768C77.1747 25.661 77.4242 25.7717 77.694 25.9105V25.0106C77.4429 24.8999 77.1747 24.8157 76.9048 24.7595C76.635 24.7034 76.3481 24.6753 76.0595 24.6753C75.5948 24.6753 75.1877 24.7595 74.8524 24.9358C74.5092 25.112 74.2488 25.3725 74.0725 25.7436C73.887 26.1055 73.8027 26.5702 73.8027 27.127C73.8027 27.6838 73.8963 28.1673 74.0725 28.5292C74.2581 28.891 74.5186 29.1514 74.8524 29.3277C75.1955 29.4946 75.5948 29.5788 76.0689 29.5788C76.3839 29.5788 76.7005 29.5414 77.0062 29.4587C77.3119 29.3745 77.6098 29.2637 77.889 29.1156V26.9243H76.0424H76.0517V26.9212Z" fill="white"/>
<path d="M64.9309 7.13889L77.2676 4.19585L77.1662 3.77787C77.0648 3.34117 76.6188 3.06356 76.1821 3.17429L65.4424 5.73677C65.0057 5.83815 64.7281 6.28421 64.8388 6.7209L64.9402 7.13889H64.9309Z" fill="#2BCE9A"/>
<path d="M67.8359 4.66995L68.5783 4.49371L68.4395 3.89949C68.4208 3.82463 68.4676 3.76068 68.5331 3.74197L72.5242 2.78591C72.599 2.76719 72.663 2.81398 72.6817 2.87949L72.8205 3.47371L73.5629 3.29747L73.3586 2.44279C73.2837 2.1371 72.9687 1.94215 72.663 2.01545L68.0683 3.11031C67.7532 3.18518 67.5677 3.50022 67.641 3.80591L67.8453 4.66059L67.8359 4.66995Z" fill="#2BCE9A"/>
<path d="M4.26744 21.3317V10.9819H1V8.53174H10.272V10.9819H7.1356V21.3317H4.26744Z" fill="#2BCE9A"/>
<path d="M19.5218 21.3424L16.7285 16.5528H15.4621V21.3424H12.4551V8.54248H23.0466V13.1465C23.0466 13.3976 23.0372 13.7189 23.0107 14.1135C22.9873 14.4597 22.9015 14.7935 22.7487 15.1382C22.6052 15.4626 22.3712 15.7636 22.0562 16.0334C21.7614 16.2861 21.3247 16.4529 20.757 16.5341L20.0895 16.6292L20.2735 17.3061L22.6364 21.3455H19.5218V21.3424ZM15.4808 14.558H20.364V10.7322H15.4808V14.558Z" fill="#2BCE9A"/>
<path d="M33.3481 21.3317L32.7726 18.0642H28.2372L27.6617 21.3317H24.6719L26.9333 8.53174H34.0765L36.3192 21.3317H33.3481ZM28.6458 15.8651H32.3874L31.397 10.3035H29.5099L28.6458 15.8651Z" fill="#2BCE9A"/>
<path d="M40.5349 21.3318C38.6602 21.3318 37.8242 20.4896 37.8242 18.6024V17.8694H40.7938V19.6895H46.0029V15.8262H37.8663L37.8336 11.2362C37.8336 9.36468 38.6695 8.53027 40.5427 8.53027H46.2603C48.1474 8.53027 48.9896 9.37248 48.9896 11.2596V12.3077H46.0014V10.1726H40.839V14.4522H48.9429V21.3302H40.5333L40.5349 21.3318Z" fill="#2BCE9A"/>
<path d="M59.8829 21.3317V16.4297H54.7563V21.3317H51.8242V8.53174H54.7563V13.9343H59.8829V8.53174H62.8883V21.3317H59.8829Z" fill="#2BCE9A"/>
</g>
<defs>
<clipPath id="clip0_1337_5605">
<rect width="76.89" height="27.5775" fill="white" transform="translate(1 2)"/>
</clipPath>
</defs>
</svg>
