<svg width="78" height="78" viewBox="0 0 78 78" fill="none" xmlns="http://www.w3.org/2000/svg">
<circle cx="39" cy="39" r="38.5" stroke="#D9D9D9"/>
<g clip-path="url(#clip0_278_4325)">
<path d="M48.8781 54.3916C48.1548 53.6683 47.4603 52.9763 46.7633 52.2806C38.0129 59.0572 25.9191 56.6391 19.8628 48.6742C14.15 41.1605 14.8244 30.4127 21.5502 23.6324C28.2471 16.8808 39.0647 16.0936 46.5689 21.8423C50.7736 25.0626 53.306 29.3058 54.0155 34.5644C54.7238 39.8192 53.3737 44.5639 50.2346 48.7845C50.9504 49.4915 51.6474 50.1809 52.3557 50.8792C52.8935 50.5808 52.9612 50.5883 53.4326 51.0597C56.2859 53.9115 59.1404 56.7632 61.9924 59.6188C63.0028 60.6304 63.2862 61.8614 62.6957 62.9895C62.0701 64.1817 60.8691 65.1669 59.4199 64.9764C58.7919 64.8937 58.2465 64.648 57.8015 64.203C54.8342 61.2434 51.8718 58.2775 48.9045 55.3179C48.566 54.9807 48.6174 54.6611 48.8794 54.3916H48.8781ZM53.1618 37.1103C53.1656 27.161 45.0809 19.0707 35.1157 19.0532C25.1293 19.0369 17.0271 27.1272 17.0358 37.1078C17.0446 47.0972 25.1531 55.2039 35.1132 55.18C45.0671 55.1562 53.1593 47.0559 53.1631 37.1103H53.1618ZM49.9951 54.9055C49.9914 54.8992 50.0077 54.9444 50.039 54.9757C52.8584 57.7962 55.6703 60.6241 58.5123 63.4208C58.7881 63.6928 59.2369 63.8708 59.6293 63.9247C60.4442 64.0375 61.3769 63.3781 61.773 62.527C62.1153 61.7899 61.9448 61.0466 61.2615 60.3609C58.5763 57.6721 55.8872 54.9857 53.2032 52.2957C53.0941 52.1853 53.0176 52.0424 52.9499 51.9472C51.9232 52.9751 50.9667 53.9328 49.9951 54.9043V54.9055ZM49.6554 53.4865C50.2546 52.8861 50.8777 52.2618 51.4368 51.7027C50.8062 51.0684 50.138 50.3966 49.535 49.7911C48.9471 50.3677 48.3278 50.9769 47.7298 51.5636C48.3654 52.1991 49.0361 52.8685 49.6554 53.4865Z" fill="#EEEEEE"/>
<path d="M53.1604 37.1104C53.1567 47.0547 45.0645 55.1563 35.1106 55.1801C25.1505 55.2039 17.042 47.0973 17.0332 37.1079C17.0257 27.1273 25.1279 19.037 35.1144 19.0532C45.0783 19.0695 53.1642 27.1598 53.1604 37.1104ZM51.9181 37.1054C51.9131 27.8142 44.3825 20.2892 35.0855 20.2855C25.7974 20.2805 18.263 27.818 18.2655 37.1117C18.268 46.4028 25.7936 53.9303 35.0906 53.9403C44.3562 53.9516 51.9231 46.3815 51.9181 37.1054Z" fill="#1F9875"/>
<path d="M49.9947 54.9053C50.9662 53.9338 51.9228 52.9749 52.9495 51.9482C53.0172 52.0423 53.0924 52.1864 53.2027 52.2967C55.8868 54.9868 58.5758 57.6731 61.2611 60.362C61.9443 61.0464 62.1161 61.791 61.7726 62.5281C61.3764 63.3792 60.4437 64.0386 59.6288 63.9258C59.2377 63.8719 58.7877 63.6939 58.5119 63.4218C55.6699 60.6252 52.858 57.7972 50.0385 54.9768C50.0072 54.9454 49.9909 54.9003 49.9947 54.9066V54.9053ZM52.8003 53.2344C52.6348 53.3685 52.3954 53.4675 52.3665 53.6104C52.3264 53.8047 52.3803 54.0943 52.5095 54.2347C53.1024 54.8777 53.7368 55.4832 54.3548 56.1037C54.608 56.3569 54.8914 56.4622 55.1747 56.1852C55.4593 55.9056 55.354 55.6236 55.0982 55.3691C54.489 54.7624 53.886 54.1494 53.2704 53.5477C53.1538 53.4337 52.9971 53.3622 52.8003 53.2331V53.2344ZM57.3372 57.8286C57.3309 57.5039 56.5524 56.7242 56.2365 56.7267C55.8692 56.7305 55.5733 57.1567 55.784 57.4525C56.0134 57.7747 56.3105 58.0743 56.6364 58.2974C56.9461 58.508 57.3435 58.2109 57.3372 57.8298V57.8286Z" fill="#1F9875"/>
<path d="M49.6541 53.4855C49.0348 52.8662 48.3641 52.1968 47.7285 51.5625C48.3265 50.9759 48.9458 50.3667 49.5337 49.79C50.1367 50.3955 50.8049 51.0674 51.4355 51.7017C50.8776 52.2608 50.2533 52.885 49.6541 53.4855Z" fill="#1F9875"/>
<path d="M51.9201 37.1051C51.9251 46.38 44.3582 53.9513 35.0926 53.94C25.7944 53.9288 18.2701 46.4025 18.2676 37.1113C18.2651 27.8189 25.7994 20.2814 35.0876 20.2852C44.3845 20.2902 51.9151 27.8151 51.9201 37.1051ZM50.8683 37.1189C50.8834 28.4294 43.843 21.3557 35.1478 21.3231C26.4388 21.2905 19.3332 28.3441 19.3056 37.0474C19.278 45.7858 26.3247 52.862 35.0776 52.8858C43.7803 52.9096 50.852 45.8472 50.8671 37.1176L50.8683 37.1189Z" fill="#EEEEEE"/>
<path d="M52.8004 53.2334C52.9973 53.3625 53.154 53.434 53.2706 53.548C53.8848 54.1497 54.4878 54.7627 55.0984 55.3694C55.3541 55.6239 55.4594 55.9047 55.1748 56.1855C54.8928 56.4625 54.6082 56.3572 54.3549 56.104C53.7369 55.4835 53.1026 54.8793 52.5096 54.235C52.3792 54.0933 52.3266 53.805 52.3667 53.6107C52.3955 53.4678 52.6362 53.3688 52.8004 53.2346V53.2334Z" fill="#EEEEEE"/>
<path d="M57.3364 57.8287C57.3439 58.211 56.9452 58.5069 56.6356 58.2963C56.3084 58.0744 56.0125 57.7748 55.7831 57.4514C55.5725 57.1556 55.8684 56.7294 56.2357 56.7256C56.5516 56.7231 57.3301 57.5015 57.3364 57.8274V57.8287Z" fill="#EEEEEE"/>
<path d="M50.8682 37.1189C50.8532 45.8485 43.7814 52.9109 35.0787 52.8871C26.3271 52.8632 19.2804 45.787 19.3067 37.0487C19.3343 28.3454 26.4399 21.2917 35.1489 21.3243C43.8441 21.3569 50.8845 28.4306 50.8695 37.1201L50.8682 37.1189ZM42.7083 37.1251C42.7083 35.8428 42.702 34.5604 42.7133 33.278C42.7158 32.9283 42.5955 32.6964 42.2908 32.5134C40.0431 31.1583 37.7991 29.7945 35.5601 28.4243C35.2429 28.23 34.9734 28.2163 34.6499 28.4143C32.4122 29.7869 30.1695 31.1508 27.9217 32.5071C27.607 32.6976 27.4679 32.9283 27.4691 33.3044C27.4804 35.8377 27.4817 38.3724 27.4691 40.9058C27.4666 41.2981 27.6108 41.5376 27.943 41.7381C30.1644 43.0756 32.3809 44.4245 34.5898 45.7833C34.9383 45.9976 35.2229 46.0189 35.5789 45.7983C37.8003 44.4295 40.0305 43.0731 42.2645 41.7268C42.5854 41.5338 42.7158 41.2969 42.7121 40.9271C42.6983 39.6598 42.7071 38.3937 42.7071 37.1264L42.7083 37.1251ZM34.4857 22.4362C30.2309 22.6857 26.6881 24.3917 23.9 27.6221C23.4425 28.1523 23.0601 28.7478 22.6539 29.3194C22.4521 29.6039 22.4646 29.8985 22.773 30.0915C23.0751 30.2796 23.3409 30.1705 23.5327 29.8784C23.6017 29.7744 23.6681 29.6679 23.7383 29.5651C25.976 26.3134 29.0224 24.3115 32.9249 23.6572C33.6144 23.5418 34.3227 23.5268 35.0223 23.4766C35.3683 23.4516 35.6102 23.2936 35.604 22.9401C35.5977 22.5866 35.357 22.4237 35.0035 22.435C34.8317 22.44 34.66 22.435 34.4882 22.435L34.4857 22.4362ZM47.5423 44.7479C47.4144 44.6062 47.3142 44.4094 47.1562 44.3392C46.8503 44.2013 46.6284 44.3793 46.4542 44.6376C44.7204 47.2136 42.3861 49.0124 39.4539 50.0303C39.0928 50.1556 38.8659 50.37 39.0176 50.7636C39.1618 51.1371 39.4714 51.1283 39.8024 51.013C42.9515 49.9212 45.4513 47.987 47.3154 45.2292C47.3994 45.1039 47.447 44.9547 47.5423 44.7491V44.7479ZM49.8578 37.8848C49.8289 37.8772 49.8014 37.8697 49.7725 37.8609C49.7725 37.6115 49.7888 37.3608 49.7688 37.1138C49.7437 36.8168 49.5908 36.6124 49.2661 36.6049C48.9464 36.5974 48.7784 36.7766 48.7395 37.0825C48.7232 37.2053 48.7345 37.3332 48.7145 37.4561C48.5176 38.6833 48.3334 39.913 48.1102 41.1352C48.0425 41.5037 47.9648 41.8422 48.4048 41.9788C48.8461 42.1154 49.0379 41.8096 49.1169 41.4436C49.3726 40.259 49.6121 39.0706 49.8578 37.8835V37.8848ZM35.8885 51.789C36.4928 51.71 37.1434 51.6348 37.7916 51.5357C38.1112 51.4869 38.3055 51.2775 38.2529 50.9441C38.2015 50.6144 37.9658 50.4803 37.6374 50.5116C36.7836 50.5931 35.9287 50.6708 35.0749 50.7561C34.769 50.7874 34.5835 50.9541 34.5873 51.2763C34.591 51.6009 34.7916 51.7589 35.0887 51.7852C35.3369 51.8065 35.5877 51.7902 35.8873 51.7902L35.8885 51.789ZM20.7409 33.9173C20.8863 34.0527 21.038 34.3097 21.201 34.316C21.3953 34.3247 21.7149 34.1655 21.7801 34.0001C22.1011 33.1903 22.3606 32.3554 22.6326 31.5268C22.7316 31.226 22.6113 30.9979 22.3242 30.8875C22.0296 30.7747 21.7889 30.8913 21.6686 31.1708C21.478 31.6146 21.3038 32.0671 21.1483 32.5234C21.0041 32.9509 20.8938 33.3896 20.7409 33.9173ZM21.4554 36.4846H21.4642C21.4717 36.3291 21.4805 36.1737 21.4868 36.0183C21.5018 35.6785 21.3852 35.4253 21.0129 35.4015C20.6418 35.3777 20.4776 35.6159 20.4525 35.9493C20.425 36.3216 20.425 36.6952 20.4199 37.0675C20.4149 37.4047 20.598 37.6115 20.9201 37.6203C21.2473 37.629 21.4291 37.4147 21.4517 37.09C21.4655 36.8895 21.4542 36.6864 21.4542 36.4833L21.4554 36.4846Z" fill="#1F9875"/>
<path d="M42.7087 37.1253C42.7087 38.3926 42.6999 39.6587 42.7137 40.926C42.7174 41.2958 42.5858 41.5315 42.2661 41.7258C40.0309 43.0733 37.8019 44.4297 35.5805 45.7973C35.2245 46.0166 34.9399 45.9966 34.5914 45.7822C32.3825 44.4221 30.166 43.0746 27.9446 41.7371C27.6124 41.5365 27.4682 41.2983 27.4707 40.9047C27.4833 38.3713 27.4833 35.8367 27.4707 33.3033C27.4695 32.9285 27.6074 32.6966 27.9233 32.506C30.1711 31.1497 32.4138 29.7859 34.6516 28.4133C34.975 28.2152 35.2445 28.229 35.5617 28.4233C37.8007 29.7934 40.0434 31.1572 42.2925 32.5123C42.5971 32.6966 42.7187 32.9285 42.7149 33.277C42.7036 34.5593 42.7099 35.8417 42.7112 37.1241L42.7087 37.1253ZM29.0014 33.0802C30.6825 34.1018 32.3248 35.0119 33.8643 36.0711C34.7594 36.6866 35.4175 36.7016 36.3201 36.0799C37.8696 35.0119 39.5232 34.0943 41.1429 33.109C41.0952 33.0513 41.0727 33.0049 41.0351 32.9824C39.1308 31.8204 37.2265 30.6558 35.3122 29.5101C35.1956 29.4399 34.9524 29.4725 34.8233 29.549C33.5747 30.2885 32.3373 31.0469 31.0988 31.8016C30.4218 32.214 29.7448 32.6264 29.0027 33.0802H29.0014ZM34.5813 44.5375C34.5813 42.2723 34.5876 40.115 34.5676 37.9564C34.5663 37.8035 34.4008 37.5979 34.2554 37.5076C32.474 36.407 30.6825 35.324 28.8924 34.2372C28.7921 34.177 28.6805 34.1356 28.5589 34.0767C28.5388 34.1582 28.5188 34.2008 28.5188 34.2434C28.5163 36.3544 28.51 38.4666 28.5288 40.5775C28.5301 40.733 28.6855 40.9423 28.8284 41.0326C30.141 41.8524 31.4648 42.6509 32.7874 43.4544C33.3578 43.8004 33.9295 44.1438 34.5826 44.5375H34.5813ZM35.6244 44.5086C35.7397 44.4535 35.7949 44.4322 35.8438 44.4033C37.6966 43.2777 39.5545 42.157 41.3961 41.0125C41.5378 40.9248 41.6493 40.6678 41.6506 40.4885C41.6681 38.4741 41.6619 36.4597 41.6606 34.4453C41.6606 34.3312 41.6368 34.2184 41.6205 34.0704C41.5215 34.1193 41.4651 34.1406 41.4149 34.172C39.5746 35.2901 37.7317 36.4033 35.9027 37.539C35.7598 37.628 35.6394 37.8774 35.6369 38.0529C35.6181 39.9583 35.6256 41.8637 35.6256 43.769C35.6256 43.9972 35.6256 44.2241 35.6256 44.5111L35.6244 44.5086Z" fill="#EEEEEE"/>
<path d="M34.4849 22.4366C34.6567 22.4366 34.8284 22.4416 35.0002 22.4366C35.3549 22.4253 35.5944 22.5883 35.6007 22.9418C35.6069 23.2953 35.365 23.4532 35.019 23.4783C34.3194 23.5284 33.6111 23.5435 32.9216 23.6588C29.0191 24.3131 25.9727 26.315 23.735 29.5667C23.6648 29.6695 23.5971 29.776 23.5294 29.8801C23.3376 30.1721 23.0718 30.2812 22.7697 30.0932C22.4613 29.9014 22.4488 29.6068 22.6506 29.321C23.0568 28.7481 23.4404 28.1527 23.8967 27.6237C26.6848 24.3946 30.2288 22.6885 34.4824 22.4378L34.4849 22.4366Z" fill="#EEEEEE"/>
<path d="M47.5412 44.7479C47.446 44.9535 47.3983 45.1039 47.3143 45.228C45.4502 47.987 42.9504 49.92 39.8013 51.0118C39.4691 51.1271 39.1594 51.1359 39.0165 50.7624C38.8648 50.3687 39.0917 50.1544 39.4528 50.029C42.3863 49.0112 44.7206 47.2123 46.4531 44.6363C46.6273 44.3781 46.8505 44.2001 47.1551 44.338C47.3118 44.4094 47.4134 44.605 47.5412 44.7466V44.7479Z" fill="#EEEEEE"/>
<path d="M49.8568 37.8848C49.6111 39.0719 49.3716 40.2602 49.1159 41.4448C49.0369 41.8109 48.8463 42.1167 48.4038 41.9801C47.9638 41.8435 48.0415 41.505 48.1092 41.1365C48.3336 39.9143 48.5179 38.6845 48.7135 37.4573C48.7335 37.3345 48.7222 37.2079 48.7385 37.0838C48.7774 36.7779 48.9454 36.5987 49.2651 36.6062C49.5897 36.6137 49.7427 36.818 49.7678 37.1151C49.7878 37.3633 49.7715 37.614 49.7715 37.8622C49.8004 37.8697 49.8279 37.8773 49.8568 37.886V37.8848Z" fill="#EEEEEE"/>
<path d="M35.886 51.7894C35.5864 51.7894 35.3357 51.8069 35.0874 51.7844C34.7891 51.758 34.5885 51.5988 34.586 51.2754C34.5822 50.9533 34.7678 50.7865 35.0737 50.7552C35.9274 50.67 36.7811 50.591 37.6361 50.5108C37.9645 50.4794 38.2002 50.6136 38.2516 50.9432C38.3043 51.2767 38.11 51.486 37.7903 51.5349C37.1434 51.6339 36.4915 51.7092 35.8873 51.7881L35.886 51.7894Z" fill="#EEEEEE"/>
<path d="M20.7402 33.9177C20.8932 33.3899 21.0035 32.9512 21.1477 32.5237C21.3031 32.0662 21.4761 31.6137 21.6679 31.1712C21.7883 30.8916 22.029 30.7751 22.3236 30.8879C22.6107 30.9982 22.731 31.2263 22.632 31.5272C22.3599 32.3558 22.1004 33.1906 21.7795 34.0004C21.7143 34.1659 21.3946 34.3238 21.2003 34.3163C21.0373 34.3088 20.8869 34.053 20.7402 33.9177Z" fill="#EEEEEE"/>
<path d="M21.4563 36.4848C21.4563 36.6866 21.4676 36.8897 21.4538 37.0915C21.4312 37.4162 21.2482 37.6305 20.9222 37.6218C20.5988 37.613 20.4158 37.4062 20.422 37.069C20.4283 36.6954 20.4283 36.3218 20.4546 35.9508C20.4784 35.6174 20.6439 35.3792 21.015 35.403C21.3886 35.4268 21.5052 35.6813 21.4889 36.0197C21.4814 36.1752 21.4738 36.3306 21.4663 36.4861H21.4575L21.4563 36.4848Z" fill="#EEEEEE"/>
<path d="M29.0013 33.0804C29.7447 32.6279 30.4204 32.2142 31.0973 31.8018C32.3372 31.0472 33.5745 30.2888 34.8219 29.5492C34.951 29.4727 35.1942 29.4414 35.3108 29.5104C37.2251 30.6548 39.1294 31.8206 41.0336 32.9826C41.0712 33.0052 41.0938 33.0516 41.1414 33.1092C39.523 34.0958 37.8682 35.0121 36.3187 36.0801C35.4161 36.7019 34.7579 36.6856 33.8628 36.0714C32.3234 35.0121 30.6811 34.102 29 33.0804H29.0013Z" fill="#1F9875"/>
<path d="M34.582 44.5374C33.9288 44.1438 33.3572 43.8016 32.7868 43.4543C31.4655 42.6508 30.1404 41.8523 28.8278 41.0325C28.6849 40.9435 28.5294 40.7329 28.5282 40.5775C28.5094 38.4665 28.5169 36.3543 28.5182 34.2434C28.5182 34.2008 28.5382 34.1594 28.5583 34.0767C28.6811 34.1343 28.7927 34.1757 28.8917 34.2371C30.6819 35.3227 32.4734 36.407 34.2548 37.5076C34.4002 37.5978 34.5657 37.8034 34.5669 37.9563C34.587 40.1137 34.5807 42.271 34.5807 44.5374H34.582Z" fill="#1F9875"/>
<path d="M35.6245 44.5086C35.6245 44.2215 35.6245 43.9946 35.6245 43.7665C35.6245 41.8611 35.617 39.9557 35.6358 38.0503C35.6371 37.8749 35.7574 37.6254 35.9016 37.5364C37.7306 36.4007 39.5735 35.2876 41.4138 34.1694C41.464 34.1381 41.5204 34.1168 41.6194 34.0679C41.6357 34.2145 41.6595 34.3286 41.6595 34.4427C41.662 36.4571 41.6683 38.4715 41.6495 40.486C41.6482 40.6652 41.5379 40.9222 41.395 41.0099C39.5534 42.1544 37.6968 43.2751 35.8427 44.4008C35.7938 44.4308 35.7386 44.4509 35.6233 44.506L35.6245 44.5086Z" fill="#1F9875"/>
</g>
<defs>
<clipPath id="clip0_278_4325">
<rect width="47" height="47" fill="white" transform="translate(16 18)"/>
</clipPath>
</defs>
</svg>
