<svg width="79" height="78" viewBox="0 0 79 78" fill="none" xmlns="http://www.w3.org/2000/svg">
<circle cx="39.3184" cy="39" r="38.5" stroke="#D9D9D9"/>
<g clip-path="url(#clip0_278_4330)">
<path d="M38.2525 37.0071C43.1048 37.0071 47.0521 32.9683 47.0521 28.0036C47.0521 23.0388 43.1046 19 38.2525 19C33.4005 19 29.4531 23.0391 29.4531 28.0036C29.4531 32.9681 33.4005 37.0071 38.2525 37.0071Z" fill="#1F9875"/>
<path d="M44.3377 52.2506C44.3377 48.166 47.0454 44.7166 50.7204 43.6818C48.3163 41.0371 45.0609 39.4216 41.5443 39.1313C40.4924 39.0441 39.385 39 38.2525 39C37.686 39 37.1265 39.0111 36.5763 39.033C36.0263 39.0549 35.4864 39.0877 34.9605 39.1313C31.4191 39.424 28.1418 41.0604 25.7328 43.7386C23.3256 46.4148 22 49.8922 22 53.53C22 53.9263 22.314 54.2475 22.7013 54.2475H44.559C44.4144 53.6055 44.3377 52.9369 44.3377 52.2506Z" fill="#1F9875"/>
<path d="M53.0225 44.7212C49.1751 44.7212 46.0449 47.9241 46.0449 51.8607C46.0449 55.7973 49.1751 59.0002 53.0225 59.0002C56.8699 59.0002 60.0003 55.7975 60.0003 51.8607C60.0003 47.9239 56.8701 44.7212 53.0225 44.7212ZM57.6517 50.2328L53.0168 55.0576C52.8466 55.2346 52.6212 55.3241 52.3956 55.3241C52.1887 55.3241 51.9811 55.2491 51.8151 55.0975L48.7743 52.3151C48.4162 51.987 48.3852 51.4237 48.7057 51.0571C49.0263 50.6904 49.5768 50.6587 49.9354 50.9865L52.3568 53.2025L56.4098 48.984C56.7467 48.6332 57.2982 48.6282 57.6411 48.9732C57.984 49.318 57.9889 49.8822 57.6519 50.2331L57.6517 50.2328Z" fill="#1F9875"/>
</g>
<defs>
<clipPath id="clip0_278_4330">
<rect width="38" height="40" fill="white" transform="translate(22 19)"/>
</clipPath>
</defs>
</svg>
