<svg width="79" height="78" viewBox="0 0 79 78" fill="none" xmlns="http://www.w3.org/2000/svg">
<circle cx="39.6367" cy="39" r="38.5" stroke="#D9D9D9"/>
<g clip-path="url(#clip0_278_4335)">
<path d="M21.3673 41.2922C21.9375 41.143 22.5167 40.9937 23.2212 40.8116C22.4659 40.6593 21.8509 40.6414 21.3404 40.3996C20.8359 40.1608 20.4418 39.6951 20 39.3309C21.1046 37.5038 22.851 38.4532 24.2422 37.7755C24.1885 37.5367 24.1974 37.1665 24.0332 36.9038C23.475 36.0082 22.8421 35.1573 22.2659 34.2707C22.1524 34.0975 22.0569 33.796 22.1345 33.6438C22.3644 33.193 22.7047 32.7989 22.9615 32.36C23.3466 31.7003 23.7765 32.1003 24.2631 32.1959C24.6422 32.2705 25.2303 32.1541 25.4751 31.8884C26.2842 31.0166 26.9768 30.0345 27.7231 29.103C28.0037 28.7537 28.3918 28.4701 28.5889 28.082C28.98 27.3058 29.2367 26.464 29.6188 25.6818C29.795 25.3236 30.1323 25.0429 30.395 24.7325C27.8246 23.0069 27.2873 21.5531 28.7143 19.7529C28.3142 19.3737 27.956 18.905 27.4873 18.6095C26.3976 17.9139 26.2603 17.5795 27.3201 16.9377C28.2814 16.3555 29.3949 15.7107 30.6249 16.1466C31.1025 16.3137 31.6548 16.663 31.8758 17.087C32.7266 18.711 33.8759 19.1737 35.5089 18.2632C36.8135 17.5348 37.5211 18.5558 38.6943 19.1439C38.0823 20.0365 37.6375 20.9649 36.933 21.6217C36.3478 22.1651 36.2762 22.4337 36.8106 22.989C37.0583 23.2487 37.136 23.6697 37.3688 24.1981C36.7717 24.3682 36.2583 24.5145 35.7657 24.6548C36.0373 26.664 38.1211 26.9715 39.2735 28.1447C38.8794 28.903 38.4794 29.6732 38.0465 30.5061C39.2496 31.1719 40.2736 31.8078 41.3602 32.3063C41.9722 32.5869 42.7007 32.6019 43.3515 32.8108C43.9396 32.9989 44.4799 33.3482 45.071 33.5214C46.5667 33.9602 48.0803 34.3423 49.7073 34.7812C49.7073 33.8677 49.6028 33.2975 49.7431 32.7929C49.8446 32.4198 50.2626 32.1302 50.5402 31.8048C50.7492 32.1063 51.1343 32.4078 51.1343 32.7093C51.1403 33.7423 51.6926 33.9811 52.5703 33.9363C53.1942 33.9035 53.8241 33.9303 54.4451 33.8796C54.8153 33.8497 55.1795 33.7244 55.5437 33.6438C55.4093 33.3213 55.275 32.9959 55.1078 32.5959C57.3797 31.751 58.8843 29.1717 61.9443 29.7777C62.3891 30.2434 63.0429 30.8823 63.634 31.5749C63.7624 31.7242 63.7236 32.0824 63.6579 32.3153C63.5474 32.7123 63.3564 33.0855 63.1892 33.4915C61.8935 33.2109 60.8576 33.9721 60.4427 35.4021C60.1292 36.4888 59.6575 37.5426 59.153 38.5577C59.0276 38.8084 58.4992 38.8562 57.9976 39.0622C57.8961 39.6055 57.7917 40.3698 57.5976 41.1101C57.52 41.4057 57.2423 41.6505 57.0543 41.9162C56.8184 41.6594 56.49 41.4415 56.3676 41.137C56.1676 40.6504 56.099 40.1071 55.9377 39.4324C55.6452 39.8264 55.4541 40.0891 55.0839 40.5877C54.7973 40.0593 54.4272 39.6682 54.4182 39.2682C54.4122 38.9517 54.8242 38.6084 55.0809 38.3039C55.4004 37.9248 55.7527 37.5695 56.093 37.2053L55.9168 36.8709C55.1466 36.8709 54.3734 36.8918 53.6032 36.865C52.9763 36.8441 52.3852 36.847 52.2658 35.9276C52.1702 35.1902 50.797 34.8916 50.0954 35.423C50.4865 35.7843 50.8716 36.1365 51.2925 36.5216C50.8179 36.8799 50.4417 37.1635 50.0655 37.4501C50.1909 37.462 50.3163 37.471 50.4417 37.4829C50.7164 38.486 50.997 39.4891 51.2627 40.4981C51.3313 40.7608 51.3403 41.0385 51.394 41.3072C51.609 42.3819 51.2985 42.7103 50.2447 42.5162C49.0923 42.3043 48.6684 42.7401 48.2594 43.8656C48.0385 44.4776 47.322 44.9344 46.7757 45.3971C46.1637 45.9166 45.4651 46.3315 44.8501 46.848C43.9844 47.5794 43.1724 48.3735 42.3185 49.1169C41.4229 49.896 40.5124 50.6573 39.5869 51.4036C39.3899 51.5619 39.0436 51.5559 38.8764 51.7291C38.557 52.0604 38.1092 52.4515 38.0823 52.8456C38.0286 53.6098 38.2555 54.392 38.3152 55.1712C38.348 55.5861 38.4077 56.0847 38.2226 56.4161C37.73 57.3117 37.5241 58.1953 37.7211 59.2163C37.7689 59.4581 37.4136 59.7865 37.2285 60.0672C36.927 60.5239 36.6135 60.9747 36.2911 61.4494C35.9149 61.8524 35.4552 62.2614 35.1059 62.748C34.6253 63.4137 33.8491 63.6078 33.3147 62.9898C32.8639 62.4704 32.5236 61.8285 32.231 61.1956C31.6638 59.9597 31.1712 58.6909 30.6368 57.44C30.5622 57.2609 30.389 57.1206 30.3293 56.9415C29.0486 53.1441 27.0335 49.5677 26.7977 45.4568C26.732 44.3194 26.7887 43.176 26.6454 41.9759C26.3887 43.4178 25.3707 43.8537 24.1855 43.982C23.4302 44.0627 21.7017 42.3341 21.3583 41.2922H21.3673Z" fill="#1F9875"/>
</g>
<defs>
<clipPath id="clip0_278_4335">
<rect width="43.7265" height="47.3597" fill="white" transform="translate(20 16)"/>
</clipPath>
</defs>
</svg>
