<svg width="79" height="78" viewBox="0 0 79 78" fill="none" xmlns="http://www.w3.org/2000/svg">
<circle cx="39.2715" cy="39" r="38.5" stroke="#D9D9D9"/>
<path d="M38 21.0325C30.0333 21.5492 24 28.5325 24 36.5158V47.6658C24 50.4325 26.2333 52.6658 29 52.6658H30.6667C32.5 52.6658 34 51.1658 34 49.3325V42.6658C34 40.8325 32.5 39.3325 30.6667 39.3325H27.3333V36.4825C27.3333 30.0825 32.2667 24.5158 38.65 24.3325C45.2667 24.1492 50.6667 29.4325 50.6667 35.9992V39.3325H47.3333C45.5 39.3325 44 40.8325 44 42.6658V49.3325C44 51.1658 45.5 52.6658 47.3333 52.6658H50.6667V54.3325H40.6667C39.75 54.3325 39 55.0825 39 55.9992C39 56.9158 39.75 57.6658 40.6667 57.6658H49C51.7667 57.6658 54 55.4325 54 52.6658V35.9992C54 27.3825 46.7333 20.4658 38 21.0325Z" fill="#1F9875"/>
</svg>
