<svg width="24" height="29" viewBox="0 0 24 29" fill="none" xmlns="http://www.w3.org/2000/svg">
<path d="M1.87305 10.4569C-0.519084 14.6073 1.00151 20.9067 3.64667 24.7259C4.96681 26.6359 6.30405 28.3496 8.13452 28.3496C8.16874 28.3496 8.20358 28.349 8.23903 28.3471C9.09956 28.3129 9.72112 28.0483 10.3219 27.7922C10.9966 27.5043 11.6952 27.2073 12.7898 27.2073C13.8844 27.2073 14.4956 27.4952 15.138 27.7726C15.7717 28.047 16.4239 28.3306 17.3883 28.3123C19.4504 28.2738 20.7167 26.4244 21.834 24.7925C23.0001 23.0892 23.585 21.4354 23.7818 20.8028L23.7897 20.7778C23.8276 20.6653 23.7738 20.5431 23.6663 20.4936C23.6663 20.4936 23.6528 20.4874 23.6498 20.4862C23.2867 20.3377 20.1007 18.9241 20.0671 15.0724C20.0359 11.9426 22.4568 10.2857 22.9426 9.98504L22.9652 9.97037C23.0178 9.93676 23.0545 9.88298 23.0673 9.82186C23.0795 9.76013 23.0673 9.69657 23.0313 9.64462C21.3603 7.19932 18.7989 6.83078 17.7678 6.78677C17.6187 6.77149 17.4641 6.76416 17.3088 6.76416C16.0975 6.76416 14.9375 7.22132 14.0048 7.58924C13.3613 7.84288 12.8057 8.06229 12.4225 8.06229C11.9916 8.06229 11.4324 7.84044 10.7858 7.58374C9.91975 7.24026 8.93882 6.85095 7.90044 6.85095C7.87538 6.85095 7.85155 6.85095 7.82771 6.85217C5.41296 6.88762 3.13084 8.26887 1.87305 10.4569V10.4569Z" fill="white"/>
<path d="M17.7697 0.0563427C16.3078 0.115627 14.5531 1.01588 13.5049 2.24434C12.6132 3.276 11.7435 4.99768 11.9727 6.73219C11.9874 6.84098 12.076 6.9241 12.1848 6.93327C12.2838 6.9406 12.384 6.94488 12.4843 6.94488C13.9138 6.94488 15.4564 6.15341 16.5101 4.87972C17.6187 3.53514 18.1792 1.80919 18.0099 0.262919C17.9964 0.141296 17.8895 0.0514533 17.7697 0.0563427Z" fill="white"/>
</svg>
