<svg width="162" height="137" viewBox="0 0 162 137" fill="none" xmlns="http://www.w3.org/2000/svg">
<g filter="url(#filter0_d_1347_4507)">
<rect x="24" y="24.1177" width="110" height="85" rx="6" fill="white" shape-rendering="crispEdges"/>
<g clip-path="url(#clip0_1347_4507)">
<path d="M79.1457 34.4117C83.6082 34.3958 87.0558 37.8083 87.0664 42.2497C87.0752 46.6049 83.5185 50.1722 79.1685 50.1704C74.8485 50.1669 71.2918 46.6208 71.2813 42.306C71.2707 37.8575 74.6867 34.4293 79.1457 34.4134V34.4117Z" fill="#C4C4C4" fill-opacity="0.8"/>
<path d="M49.6951 86.6079C49.6951 86.6079 50.2756 92.7299 55.7459 92.778C61.2162 92.8261 103.411 92.8012 103.411 92.8012C103.411 92.8012 107.916 92.4115 107.74 87.437C107.167 87.9776 107.51 89.8165 103.141 90.7334C102.539 90.8595 101.923 90.9158 101.308 90.9109C89.0444 90.7998 66.9398 90.76 55.8497 90.7533C52.1225 90.7517 49.6934 86.6079 49.6934 86.6079H49.6951Z" fill="#C4C4C4" fill-opacity="0.8"/>
<path d="M108.86 85.9323C108.849 89.8358 105.892 92.7915 101.945 92.7949C86.6449 92.8122 71.3446 92.8122 56.046 92.7949C52.1042 92.7897 49.1473 89.8237 49.1386 85.9254C49.1228 79.8393 49.1298 73.7549 49.1351 67.6688C49.1403 63.5699 52.0587 60.6955 56.249 60.6886C63.844 60.6765 71.4408 60.6851 79.0359 60.6851C86.6309 60.6851 94.1822 60.6782 101.756 60.6886C104.997 60.692 107.526 62.3991 108.477 65.2648C108.716 65.9895 108.844 66.7833 108.847 67.546C108.877 73.6754 108.877 79.803 108.86 85.9323V85.9323Z" stroke="black" stroke-width="1.16163" stroke-miterlimit="10"/>
<path d="M78.9699 33.5318C83.4324 33.516 86.8801 36.9284 86.8906 41.3698C86.8994 45.7251 83.3427 49.2923 78.9928 49.2905C74.6727 49.287 71.1161 45.7409 71.1055 41.4261C71.0932 36.9759 74.5091 33.5476 78.9699 33.5318Z" fill="#1F9875"/>
<path d="M68.3537 44.8032C68.8884 45.7883 69.3985 46.7012 69.8717 47.6334C69.9455 47.7777 69.9121 48.0556 69.8171 48.1945C67.6817 51.2728 65.534 54.3422 63.3775 57.4063C63.279 57.547 63.0838 57.7071 62.929 57.7106C61.7751 57.7353 60.6194 57.7247 59.3125 57.7247C62.3802 53.3413 65.374 49.0635 68.3537 44.8032Z" fill="black"/>
<path d="M98.6854 57.7254C97.3926 57.7254 96.2756 57.736 95.1587 57.7149C94.9933 57.7113 94.7664 57.6111 94.6749 57.4792C92.427 54.2954 90.1931 51.1028 87.9961 47.9666C88.5484 46.8795 89.0708 45.8505 89.6179 44.7705C92.6152 49.0536 95.609 53.3297 98.6854 57.7254Z" fill="black"/>
<path d="M60.4748 84.0923C59.634 83.7071 58.9726 83.1706 58.4924 82.4828C58.1723 82.0237 57.9507 81.5277 57.8293 80.9965C57.7325 80.5743 58.0668 80.175 58.5012 80.175H58.9304C59.2435 80.175 59.5144 80.3879 59.5935 80.6922C59.7519 81.299 60.0808 81.8425 60.5839 82.3263C61.2241 82.9437 62.1617 83.2515 63.3965 83.2515C64.5345 83.2515 65.4351 82.9595 66.1 82.3738C66.7649 81.7898 67.0974 81.0475 67.0974 80.1504C67.0974 79.4292 66.9127 78.8488 66.545 78.4072C66.1757 77.9675 65.7201 77.6386 65.1748 77.4222C64.6295 77.2059 63.8767 76.9702 62.9163 76.7133C61.794 76.409 60.9057 76.1118 60.2479 75.8233C59.59 75.5348 59.0307 75.0863 58.5663 74.4777C58.1019 73.8691 57.8697 73.0441 57.8697 72.0028C57.8697 71.1374 58.0931 70.3652 58.5434 69.6827C58.992 69.002 59.6252 68.469 60.4414 68.0838C61.2593 67.6986 62.1951 67.5068 63.254 67.5068C64.8072 67.5068 66.0613 67.8885 67.0147 68.6484C67.7148 69.2078 68.1985 69.8867 68.4606 70.6836C68.6083 71.1303 68.2829 71.593 67.8115 71.593H67.3612C67.0675 71.593 66.8124 71.403 66.7139 71.1268C66.5327 70.6238 66.1968 70.1664 65.7043 69.7531C65.064 69.2166 64.1986 68.9474 63.108 68.9474C62.0983 68.9474 61.2575 69.2166 60.5839 69.7531C59.9102 70.2895 59.5742 71.023 59.5742 71.9518C59.5742 72.6571 59.7589 73.2253 60.1265 73.658C60.4941 74.0907 60.955 74.4196 61.5091 74.643C62.0614 74.8682 62.8107 75.1074 63.7571 75.3642C64.8459 75.6685 65.7289 75.9693 66.4008 76.2648C67.0745 76.5621 67.6427 77.0141 68.107 77.6227C68.5714 78.2314 68.8036 79.0493 68.8036 80.0748C68.8036 80.8593 68.5943 81.6051 68.1791 82.3104C67.7623 83.0158 67.1449 83.5839 66.3287 84.0166C65.5108 84.4494 64.5345 84.6657 63.3965 84.6657C62.2584 84.6657 61.3174 84.474 60.4766 84.0888L60.4748 84.0923Z" fill="#1F9875"/>
<path d="M73.7304 69.7567V74.6607C73.7304 75.0389 74.0365 75.3449 74.4147 75.3449H79.4137C79.7919 75.3449 80.0979 75.651 80.0979 76.0292V76.0538C80.0979 76.432 79.7919 76.7381 79.4137 76.7381H74.4147C74.0365 76.7381 73.7304 77.0441 73.7304 77.4223V82.4213C73.7304 82.7995 74.0365 83.1056 74.4147 83.1056H80.1349C80.5131 83.1056 80.8191 83.4116 80.8191 83.7898V83.8144C80.8191 84.1926 80.5131 84.4987 80.1349 84.4987H72.7331C72.3549 84.4987 72.0488 84.1926 72.0488 83.8144V68.36C72.0488 67.9818 72.3549 67.6758 72.7331 67.6758H80.1349C80.5131 67.6758 80.8191 67.9818 80.8191 68.36V68.3847C80.8191 68.7628 80.5131 69.0689 80.1349 69.0689H74.4147C74.0365 69.0689 73.7304 69.375 73.7304 69.7531V69.7567Z" fill="#1F9875"/>
<path d="M86.5045 83.1319H91.1676C91.5457 83.1319 91.8518 83.438 91.8518 83.8162C91.8518 84.1944 91.5457 84.5004 91.1676 84.5004H84.8229C84.4447 84.5004 84.1387 84.1944 84.1387 83.8162V68.3864C84.1387 68.0082 84.4447 67.7021 84.8229 67.7021H85.136C85.5142 67.7021 85.8203 68.0082 85.8203 68.3864V82.4459C85.8203 82.8241 86.1263 83.1302 86.5045 83.1302V83.1319Z" fill="#1F9875"/>
<path d="M96.6236 83.1319H101.287C101.665 83.1319 101.971 83.438 101.971 83.8162C101.971 84.1944 101.665 84.5004 101.287 84.5004H94.9421C94.5639 84.5004 94.2578 84.1944 94.2578 83.8162V68.3864C94.2578 68.0082 94.5639 67.7021 94.9421 67.7021H95.2552C95.6333 67.7021 95.9394 68.0082 95.9394 68.3864V82.4459C95.9394 82.8241 96.2455 83.1302 96.6236 83.1302V83.1319Z" fill="#1F9875"/>
<path d="M53.1251 44.3535L52.9003 43.3555L52.6756 44.3535C52.3915 45.6357 51.3935 46.6337 50.1113 46.9179L49.1133 47.1426L50.1113 47.3673C51.3935 47.6515 52.3915 48.6495 52.6756 49.9317L52.9003 50.9297L53.1251 49.9317C53.4093 48.6495 54.4073 47.6515 55.6895 47.3673L56.6875 47.1426L55.6895 46.9179C54.4139 46.6337 53.4093 45.6357 53.1251 44.3535Z" fill="#2BCF9B"/>
<path d="M105.979 53.6464L105.754 52.6484L105.529 53.6464C105.245 54.9287 104.247 55.9266 102.965 56.2109L101.967 56.4356L102.965 56.6603C104.247 56.9445 105.245 57.9425 105.529 59.2247L105.754 60.2226L105.979 59.2247C106.263 57.9425 107.261 56.9445 108.543 56.6603L109.541 56.4356L108.543 56.2109C107.267 55.9266 106.263 54.9287 105.979 53.6464Z" fill="#2BCF9B"/>
</g>
<rect x="24.2904" y="24.4081" width="109.419" height="84.4192" rx="5.70959" stroke="#2BCF9B" stroke-width="0.580816" shape-rendering="crispEdges"/>
</g>
<defs>
<filter id="filter0_d_1347_4507" x="0.767366" y="0.885042" width="161.112" height="136.112" filterUnits="userSpaceOnUse" color-interpolation-filters="sRGB">
<feFlood flood-opacity="0" result="BackgroundImageFix"/>
<feColorMatrix in="SourceAlpha" type="matrix" values="0 0 0 0 0 0 0 0 0 0 0 0 0 0 0 0 0 0 127 0" result="hardAlpha"/>
<feOffset dx="2.32326" dy="2.32326"/>
<feGaussianBlur stdDeviation="12.7779"/>
<feComposite in2="hardAlpha" operator="out"/>
<feColorMatrix type="matrix" values="0 0 0 0 0 0 0 0 0 0.0196078 0 0 0 0 0.180392 0 0 0 0.08 0"/>
<feBlend mode="normal" in2="BackgroundImageFix" result="effect1_dropShadow_1347_4507"/>
<feBlend mode="normal" in="SourceGraphic" in2="effect1_dropShadow_1347_4507" result="shape"/>
</filter>
<clipPath id="clip0_1347_4507">
<rect width="61.9971" height="60.9857" fill="white" transform="translate(48 33.5317)"/>
</clipPath>
</defs>
</svg>
