<svg width="162" height="137" viewBox="0 0 162 137" fill="none" xmlns="http://www.w3.org/2000/svg">
<g filter="url(#filter0_d_1347_4297)">
<rect x="24" y="23.9395" width="110" height="85" rx="6" fill="white" shape-rendering="crispEdges"/>
<path d="M50.3829 33.3066L50.1582 32.3086L49.9335 33.3066C49.6493 34.5888 48.6513 35.5868 47.3691 35.871L46.3711 36.0957L47.3691 36.3204C48.6513 36.6047 49.6493 37.6026 49.9335 38.8849L50.1582 39.8828L50.3829 38.8849C50.6671 37.6026 51.6651 36.6047 52.9473 36.3204L53.9453 36.0957L52.9473 35.871C51.6717 35.5868 50.6671 34.5888 50.3829 33.3066Z" fill="#2BCF9B"/>
<path d="M105.561 37.3715L105.336 36.3735L105.111 37.3715C104.827 38.6538 103.829 39.6517 102.547 39.936L101.549 40.1607L102.547 40.3854C103.829 40.6696 104.827 41.6676 105.111 42.9498L105.336 43.9477L105.561 42.9498C105.845 41.6676 106.843 40.6696 108.125 40.3854L109.123 40.1607L108.125 39.936C106.849 39.6517 105.845 38.6538 105.561 37.3715Z" fill="#2BCF9B"/>
<path d="M47.5833 84.6323C47.5833 84.6323 47.8162 92.0879 53.4891 92.1467C59.162 92.2055 102.913 92.1751 102.913 92.1751C102.913 92.1751 108.169 91.004 107.986 84.9227C107.392 85.5836 107.162 88.5263 102.631 89.6473C102.007 89.8014 101.37 89.8703 100.73 89.8642C88.0147 89.7284 65.094 89.6797 53.5972 89.6716C49.7321 89.6696 47.291 84.6323 47.291 84.6323H47.5833Z" fill="#C4C4C4"/>
<path d="M100.557 45.7173H55.0093C50.5859 45.7173 47 49.2366 47 53.5778V84.322C47 88.6633 50.5859 92.1826 55.0093 92.1826H100.557C104.981 92.1826 108.566 88.6633 108.566 84.322V53.5778C108.566 49.2366 104.981 45.7173 100.557 45.7173Z" stroke="black" stroke-width="1.16163" stroke-miterlimit="10"/>
<path d="M100.557 45.7173H55.0093C50.5859 45.7173 47 49.2366 47 53.5778V76.2411C47 80.5824 50.5859 84.1016 55.0093 84.1016H100.557C104.981 84.1016 108.566 80.5824 108.566 76.2411V53.5778C108.566 49.2366 104.981 45.7173 100.557 45.7173Z" stroke="black" stroke-width="1.16163" stroke-miterlimit="10"/>
<path d="M94.7767 87.228L91.1221 83.0728L94.8435 80.2434C95.2928 79.9011 95.2149 79.1655 94.7072 78.9581L83.476 74.3707C83.01 74.1803 82.5099 74.579 82.5408 75.1154L83.2933 88.1513C83.3265 88.7346 83.9526 89.0328 84.3878 88.6737L88.0691 85.6313L90.6189 90.4655L93.0523 88.655L94.7767 87.228Z" fill="#C4C4C4" fill-opacity="0.5"/>
<path d="M69.3223 65.0679C69.7752 65.4205 70.1345 65.8576 70.4002 66.3792C70.6659 66.9008 70.7988 67.4591 70.7988 68.0505C70.7988 68.798 70.6042 69.472 70.2168 70.0707C69.8295 70.6713 69.2643 71.1433 68.5252 71.4886C67.7841 71.8338 66.9121 72.0065 65.9053 72.0065H60.2988V57.2588H65.6882C66.7081 57.2588 67.5783 57.4241 68.2969 57.7565C69.0154 58.0889 69.5544 58.5352 69.9137 59.1009C70.273 59.6647 70.4526 60.3002 70.4526 61.0054C70.4526 61.8796 70.2112 62.6032 69.7303 63.1744C69.2494 63.7456 68.6131 64.1588 67.8215 64.4122C68.368 64.4967 68.8676 64.7153 69.3205 65.0679H69.3223ZM62.2618 63.6299H65.561C66.4798 63.6299 67.1928 63.4187 67.6962 62.9944C68.1995 62.572 68.4503 61.9861 68.4503 61.2386C68.4503 60.4912 68.1995 59.9053 67.6962 59.4829C67.1928 59.0605 66.4667 58.8474 65.5179 58.8474H62.2618V63.6299ZM68.018 69.7456C68.5645 69.2938 68.8377 68.6657 68.8377 67.8632C68.8377 67.0606 68.5495 66.3994 67.975 65.9274C67.4005 65.4554 66.6314 65.2185 65.6676 65.2185H62.2618V70.4233H65.7331C66.71 70.4233 67.4716 70.1974 68.018 69.7456Z" fill="#1F9875"/>
<path d="M75.1062 57.2607C75.2878 57.2607 75.4337 57.404 75.4337 57.5821V66.5924C75.4337 67.9037 75.7612 68.8771 76.4143 69.5125C77.0674 70.148 77.9768 70.4639 79.1408 70.4639C80.3048 70.4639 81.1918 70.1461 81.8467 69.5125C82.4998 68.8771 82.8273 67.9037 82.8273 66.5924V57.5821C82.8273 57.404 82.9733 57.2607 83.1548 57.2607H84.461C84.6425 57.2607 84.7885 57.404 84.7885 57.5821V66.5703C84.7885 67.7972 84.5377 68.8311 84.0343 69.6705C83.5309 70.5098 82.8516 71.1342 81.9964 71.5438C81.1412 71.9533 80.1813 72.1572 79.1184 72.1572C78.0554 72.1572 77.0955 71.9533 76.2403 71.5438C75.3851 71.1342 74.7095 70.5098 74.2136 69.6705C73.7177 68.8311 73.4707 67.7972 73.4707 66.5703V57.5821C73.4707 57.404 73.6167 57.2607 73.7982 57.2607H75.1044H75.1062Z" fill="#1F9875"/>
<path d="M98.3383 57.7309L93.733 66.3738C93.7087 66.4197 93.6956 66.4712 93.6956 66.5226V71.687C93.6956 71.8652 93.5496 72.0084 93.3681 72.0084H92.0619C91.8804 72.0084 91.7345 71.8652 91.7345 71.687V66.5226C91.7345 66.4712 91.7214 66.4197 91.697 66.3738L87.0711 57.7309C86.957 57.516 87.1142 57.2607 87.3612 57.2607H88.7909C88.9162 57.2607 89.0304 57.3305 89.0847 57.4407L92.4081 64.1369C92.5279 64.3775 92.8778 64.3775 92.9976 64.1369L96.3211 57.4407C96.3753 57.3305 96.4895 57.2607 96.6149 57.2607H98.0464C98.2934 57.2607 98.4506 57.5179 98.3365 57.7309H98.3383Z" fill="#1F9875"/>
<path d="M96.0475 86.5286L91.8236 82.207L96.0495 79.3279C96.5596 78.9797 96.4628 78.2204 95.8798 78.0013L82.9861 73.1564C82.4512 72.9552 81.8834 73.3611 81.9245 73.9145L82.9241 87.3627C82.9682 87.9644 83.6874 88.2783 84.1814 87.9126L88.3591 84.8135L91.3267 89.8239L94.0905 87.9822L96.0475 86.5286Z" fill="#1F9875" stroke="black" stroke-width="0.116163" stroke-miterlimit="10"/>
<path d="M84.4087 37.8512L77.4076 38.4181" stroke="black" stroke-width="0.580816"/>
<path d="M80.7212 40.9332L73.7201 41.5001" stroke="black" stroke-width="0.580816"/>
</g>
<defs>
<filter id="filter0_d_1347_4297" x="0.767366" y="0.70682" width="161.112" height="136.112" filterUnits="userSpaceOnUse" color-interpolation-filters="sRGB">
<feFlood flood-opacity="0" result="BackgroundImageFix"/>
<feColorMatrix in="SourceAlpha" type="matrix" values="0 0 0 0 0 0 0 0 0 0 0 0 0 0 0 0 0 0 127 0" result="hardAlpha"/>
<feOffset dx="2.32326" dy="2.32326"/>
<feGaussianBlur stdDeviation="12.7779"/>
<feComposite in2="hardAlpha" operator="out"/>
<feColorMatrix type="matrix" values="0 0 0 0 0 0 0 0 0 0.0196078 0 0 0 0 0.180392 0 0 0 0.08 0"/>
<feBlend mode="normal" in2="BackgroundImageFix" result="effect1_dropShadow_1347_4297"/>
<feBlend mode="normal" in="SourceGraphic" in2="effect1_dropShadow_1347_4297" result="shape"/>
</filter>
</defs>
</svg>
