<svg width="48" height="51" viewBox="0 0 48 51" fill="none" xmlns="http://www.w3.org/2000/svg">
<path d="M3.13324 1.70061L2.96995 0.975586L2.8067 1.70061C2.60027 2.63213 1.87524 3.35711 0.943779 3.56359L0.21875 3.72683L0.943779 3.89008C1.87524 4.09656 2.60027 4.82154 2.8067 5.75306L2.96995 6.47803L3.13324 5.75306C3.33968 4.82154 4.06471 4.09656 4.99617 3.89008L5.7212 3.72683L4.99617 3.56359C4.06952 3.35711 3.33968 2.63213 3.13324 1.70061Z" fill="#2BCF9B"/>
<path d="M43.2192 4.65472L43.0559 3.92969L42.8926 4.65472C42.6862 5.58623 41.9612 6.31121 41.0297 6.51769L40.3047 6.68094L41.0297 6.84418C41.9612 7.05067 42.6862 7.77564 42.8926 8.70716L43.0559 9.43213L43.2192 8.70716C43.4256 7.77564 44.1506 7.05067 45.0821 6.84418L45.8071 6.68094L45.0821 6.51769C44.1555 6.31121 43.4256 5.58623 43.2192 4.65472Z" fill="#2BCF9B"/>
<path d="M39.5856 10.7168H6.49624C3.28277 10.7168 0.677734 13.2735 0.677734 16.4273V38.7621C0.677734 41.9159 3.28277 44.4725 6.49624 44.4725H39.5856C42.799 44.4725 45.4041 41.9159 45.4041 38.7621V16.4273C45.4041 13.2735 42.799 10.7168 39.5856 10.7168Z" fill="white" stroke="black" stroke-width="0.843893" stroke-miterlimit="10"/>
<path d="M1.10295 38.9878C1.10295 38.9878 1.27219 44.4041 5.39338 44.4468C9.51458 44.4895 41.2982 44.4674 41.2982 44.4674C41.2982 44.4674 45.1167 43.6166 44.984 39.1988C44.5522 39.6788 44.385 41.8167 41.0937 42.631C40.6402 42.743 40.1772 42.793 39.7128 42.7886C30.4753 42.6899 13.824 42.6546 5.47191 42.6487C2.66397 42.6472 0.890625 38.9878 0.890625 38.9878H1.10295Z" fill="#C4C4C4"/>
<path d="M39.5856 10.7168H6.49624C3.28277 10.7168 0.677734 13.2735 0.677734 16.4273V32.8915C0.677734 36.0453 3.28277 38.602 6.49624 38.602H39.5856C42.799 38.602 45.4041 36.0453 45.4041 32.8915V16.4273C45.4041 13.2735 42.799 10.7168 39.5856 10.7168Z" fill="white" stroke="black" stroke-width="0.843893" stroke-miterlimit="10"/>
<path d="M35.3847 40.8728L32.7297 37.8542L35.4332 35.7987C35.7596 35.55 35.7031 35.0156 35.3342 34.8649L27.175 31.5324C26.8365 31.394 26.4732 31.6836 26.4956 32.0733L27.0423 41.5436C27.0664 41.9673 27.5212 42.184 27.8374 41.9231L30.5118 39.7128L32.3641 43.2248L34.1319 41.9095L35.3847 40.8728Z" fill="#C4C4C4" fill-opacity="0.5"/>
<path d="M16.8952 24.7742C17.2242 25.0303 17.4852 25.3479 17.6782 25.7268C17.8713 26.1057 17.9678 26.5113 17.9678 26.9409C17.9678 27.484 17.8264 27.9736 17.545 28.4086C17.2636 28.8449 16.853 29.1878 16.316 29.4386C15.7777 29.6894 15.1442 29.8148 14.4128 29.8148H10.3398V19.1011H14.2551C14.996 19.1011 15.6282 19.2212 16.1502 19.4626C16.6722 19.7041 17.0637 20.0284 17.3248 20.4393C17.5858 20.8489 17.7163 21.3105 17.7163 21.8229C17.7163 22.458 17.5409 22.9837 17.1915 23.3986C16.8422 23.8135 16.3799 24.1137 15.8049 24.2979C16.2018 24.3592 16.5648 24.518 16.8938 24.7742H16.8952ZM11.7659 23.7295H14.1627C14.8302 23.7295 15.3481 23.576 15.7138 23.2678C16.0795 22.961 16.2617 22.5354 16.2617 21.9923C16.2617 21.4493 16.0795 21.0237 15.7138 20.7168C15.3481 20.4099 14.8206 20.2552 14.1314 20.2552H11.7659V23.7295ZM15.9476 28.1724C16.3446 27.8442 16.5431 27.3879 16.5431 26.8049C16.5431 26.2218 16.3337 25.7415 15.9164 25.3986C15.499 25.0557 14.9403 24.8836 14.2401 24.8836H11.7659V28.6648H14.2877C14.9974 28.6648 15.5507 28.5006 15.9476 28.1724Z" fill="#1F9875"/>
<path d="M21.0983 19.103C21.2302 19.103 21.3362 19.2071 21.3362 19.3365V25.8822C21.3362 26.8348 21.5741 27.542 22.0486 28.0036C22.523 28.4652 23.1837 28.6947 24.0293 28.6947C24.8749 28.6947 25.5193 28.4639 25.9951 28.0036C26.4696 27.542 26.7075 26.8348 26.7075 25.8822V19.3365C26.7075 19.2071 26.8135 19.103 26.9454 19.103H27.8943C28.0262 19.103 28.1322 19.2071 28.1322 19.3365V25.8662C28.1322 26.7574 27.95 27.5086 27.5843 28.1183C27.2186 28.7281 26.7251 29.1817 26.1039 29.4792C25.4826 29.7768 24.7852 29.9249 24.013 29.9249C23.2408 29.9249 22.5434 29.7768 21.9222 29.4792C21.3009 29.1817 20.8101 28.7281 20.4499 28.1183C20.0896 27.5086 19.9102 26.7574 19.9102 25.8662V19.3365C19.9102 19.2071 20.0162 19.103 20.1481 19.103H21.097H21.0983Z" fill="#1F9875"/>
<path d="M37.9765 19.4446L34.6309 25.7234C34.6132 25.7568 34.6037 25.7941 34.6037 25.8315V29.5833C34.6037 29.7127 34.4977 29.8168 34.3658 29.8168H33.4169C33.285 29.8168 33.179 29.7127 33.179 29.5833V25.8315C33.179 25.7941 33.1695 25.7568 33.1518 25.7234L29.7912 19.4446C29.7083 19.2885 29.8225 19.103 30.0019 19.103H31.0406C31.1316 19.103 31.2146 19.1537 31.254 19.2338L33.6684 24.0983C33.7554 24.2731 34.0096 24.2731 34.0966 24.0983L36.511 19.2338C36.5505 19.1537 36.6334 19.103 36.7245 19.103H37.7645C37.9439 19.103 38.0581 19.2898 37.9752 19.4446H37.9765Z" fill="#1F9875"/>
<path d="M36.3095 40.3652L33.2409 37.2256L36.3109 35.1341C36.6815 34.8811 36.6112 34.3295 36.1877 34.1703L26.8208 30.6506C26.4321 30.5045 26.0197 30.7994 26.0495 31.2014L26.7757 40.9711C26.8078 41.4082 27.3303 41.6363 27.6891 41.3706L30.7241 39.1192L32.88 42.7591L34.8878 41.4212L36.3095 40.3652Z" fill="#1F9875" stroke="black" stroke-width="0.0843893" stroke-miterlimit="10"/>
<path d="M27.8553 5.00302L22.7692 5.41488" stroke="black" stroke-width="0.421947"/>
<path d="M25.1737 7.2413L20.0876 7.65316" stroke="black" stroke-width="0.421947"/>
<path d="M44.9438 46.0419L44.7805 45.3169L44.6173 46.0419C44.4108 46.9734 43.6858 47.6984 42.7543 47.9049L42.0293 48.0681L42.7543 48.2314C43.6858 48.4379 44.4108 49.1628 44.6173 50.0944L44.7805 50.8193L44.9438 50.0944C45.1502 49.1628 45.8753 48.4379 46.8067 48.2314L47.5317 48.0681L46.8067 47.9049C45.8801 47.6984 45.1502 46.9734 44.9438 46.0419Z" fill="#2BCF9B"/>
</svg>
