<svg width="46" height="51" viewBox="0 0 46 51" fill="none" xmlns="http://www.w3.org/2000/svg">
<g clip-path="url(#clip0_1442_7397)">
<path d="M22.8441 1.48051C26.0861 1.46901 28.5906 3.94804 28.5983 7.17462C28.6047 10.3386 26.0209 12.9301 22.8608 12.9288C19.7224 12.9262 17.1385 10.3501 17.1309 7.21551C17.1232 3.98382 19.6048 1.49329 22.8441 1.48179V1.48051Z" fill="#C4C4C4" fill-opacity="0.8"/>
<path d="M44.4299 38.9085C44.4222 41.7442 42.2742 43.8915 39.4067 43.894C28.2914 43.9066 17.1762 43.9066 6.06221 43.894C3.19855 43.8902 1.05049 41.7355 1.04414 38.9035C1.0327 34.4821 1.03778 30.062 1.0416 25.6406C1.04541 22.6628 3.16551 20.5747 6.20965 20.5696C11.7272 20.5608 17.2461 20.5671 22.7637 20.5671C28.2813 20.5671 33.7671 20.5621 39.2694 20.5696C41.6234 20.5721 43.4613 21.8122 44.1515 23.8941C44.3256 24.4206 44.4184 24.9973 44.421 25.5514C44.4426 30.0042 44.4426 34.4557 44.4299 38.9085Z" fill="white" stroke="black" stroke-width="0.843893" stroke-miterlimit="10"/>
<path d="M1.44659 39.3999C1.44659 39.3999 1.86827 43.8473 5.8423 43.8823C9.81632 43.9172 40.47 43.8991 40.47 43.8991C40.47 43.8991 43.7425 43.6161 43.6147 40.0022C43.1981 40.3949 43.4473 41.7308 40.2732 42.397C39.8362 42.4885 39.389 42.5295 38.9417 42.5259C30.0327 42.4452 13.9744 42.4163 5.91769 42.4114C3.20998 42.4102 1.44531 39.3999 1.44531 39.3999H1.44659Z" fill="#C4C4C4" fill-opacity="0.8"/>
<path d="M22.7153 0.841348C25.9572 0.829848 28.4617 3.30888 28.4694 6.53546C28.4758 9.69942 25.892 12.2909 22.7319 12.2896C19.5935 12.2871 17.0096 9.71092 17.002 6.57635C16.993 3.34338 19.4746 0.852849 22.7153 0.841348Z" fill="#1F9875"/>
<path d="M15.0037 9.02979C15.3922 9.74538 15.7627 10.4086 16.1065 11.0858C16.1602 11.1906 16.1359 11.3925 16.0669 11.4935C14.5156 13.7297 12.9553 15.9596 11.3887 18.1856C11.3171 18.2878 11.1753 18.4041 11.0628 18.4067C10.2245 18.4246 9.38499 18.4169 8.43555 18.4169C10.6641 15.2325 12.839 12.1247 15.0037 9.02979Z" fill="black"/>
<path d="M37.0389 18.4172C36.0997 18.4172 35.2883 18.4249 34.4768 18.4096C34.3567 18.407 34.1919 18.3342 34.1254 18.2383C32.4923 15.9254 30.8695 13.6061 29.2734 11.3277C29.6747 10.538 30.0542 9.79046 30.4516 9.00586C32.6291 12.1174 34.804 15.2239 37.0389 18.4172Z" fill="black"/>
<path d="M9.28174 37.5718C8.67093 37.292 8.19046 36.9022 7.8416 36.4026C7.60903 36.0691 7.44802 35.7087 7.35985 35.3228C7.28957 35.0161 7.53236 34.726 7.84799 34.726H8.15979C8.38725 34.726 8.58403 34.8807 8.64154 35.1017C8.75654 35.5426 8.9955 35.9374 9.36097 36.2888C9.82611 36.7374 10.5072 36.961 11.4043 36.961C12.231 36.961 12.8853 36.7489 13.3683 36.3234C13.8513 35.8991 14.0929 35.3598 14.0929 34.7081C14.0929 34.1842 13.9587 33.7625 13.6916 33.4418C13.4233 33.1223 13.0923 32.8834 12.6962 32.7262C12.3 32.569 11.7531 32.3978 11.0554 32.2112C10.2401 31.9902 9.59482 31.7742 9.1169 31.5646C8.63898 31.3551 8.23263 31.0292 7.89527 30.5871C7.55792 30.1449 7.38924 29.5456 7.38924 28.7891C7.38924 28.1604 7.55153 27.5995 7.87866 27.1037C8.20451 26.6091 8.66454 26.2219 9.25746 25.9421C9.85166 25.6622 10.5315 25.5229 11.3007 25.5229C12.4291 25.5229 13.3402 25.8002 14.0328 26.3523C14.5414 26.7586 14.8928 27.2519 15.0832 27.8308C15.1905 28.1553 14.9541 28.4914 14.6117 28.4914H14.2845C14.0711 28.4914 13.8858 28.3534 13.8143 28.1528C13.6827 27.7873 13.4386 27.4551 13.0808 27.1548C12.6157 26.765 11.987 26.5695 11.1947 26.5695C10.4612 26.5695 9.85039 26.765 9.36097 27.1548C8.87155 27.5445 8.62748 28.0774 8.62748 28.7521C8.62748 29.2645 8.76166 29.6772 9.02873 29.9916C9.2958 30.3059 9.6306 30.5449 10.0331 30.7072C10.4344 30.8708 10.9787 31.0445 11.6662 31.2311C12.4572 31.4522 13.0987 31.6707 13.5868 31.8854C14.0762 32.1013 14.489 32.4297 14.8263 32.8719C15.1637 33.314 15.3324 33.9082 15.3324 34.6532C15.3324 35.2231 15.1803 35.7649 14.8787 36.2773C14.5759 36.7898 14.1274 37.2025 13.5344 37.5169C12.9402 37.8312 12.231 37.9884 11.4043 37.9884C10.5775 37.9884 9.89383 37.8491 9.28302 37.5693L9.28174 37.5718Z" fill="#1F9875"/>
<path d="M18.9111 27.1577V30.7203C18.9111 30.9951 19.1334 31.2174 19.4082 31.2174H23.0398C23.3146 31.2174 23.5369 31.4398 23.5369 31.7145V31.7324C23.5369 32.0071 23.3146 32.2295 23.0398 32.2295H19.4082C19.1334 32.2295 18.9111 32.4518 18.9111 32.7266V36.3582C18.9111 36.633 19.1334 36.8553 19.4082 36.8553H23.5637C23.8385 36.8553 24.0608 37.0777 24.0608 37.3524V37.3703C24.0608 37.645 23.8385 37.8674 23.5637 37.8674H18.1865C17.9118 37.8674 17.6895 37.645 17.6895 37.3703V26.1431C17.6895 25.8683 17.9118 25.646 18.1865 25.646H23.5637C23.8385 25.646 24.0608 25.8683 24.0608 26.1431V26.161C24.0608 26.4357 23.8385 26.6581 23.5637 26.6581H19.4082C19.1334 26.6581 18.9111 26.8804 18.9111 27.1551V27.1577Z" fill="#1F9875"/>
<path d="M28.1914 36.8744H31.579C31.8537 36.8744 32.076 37.0967 32.076 37.3714C32.076 37.6462 31.8537 37.8685 31.579 37.8685H26.9697C26.695 37.8685 26.4727 37.6462 26.4727 37.3714V26.1621C26.4727 25.8874 26.695 25.665 26.9697 25.665H27.1972C27.4719 25.665 27.6943 25.8874 27.6943 26.1621V36.376C27.6943 36.6507 27.9166 36.8731 28.1914 36.8731V36.8744Z" fill="#1F9875"/>
<path d="M35.5429 36.8744H38.9305C39.2053 36.8744 39.4276 37.0967 39.4276 37.3714C39.4276 37.6462 39.2053 37.8685 38.9305 37.8685H34.3213C34.0466 37.8685 33.8242 37.6462 33.8242 37.3714V26.1621C33.8242 25.8874 34.0466 25.665 34.3213 25.665H34.5488C34.8235 25.665 35.0458 25.8874 35.0458 26.1621V36.376C35.0458 36.6507 35.2682 36.8731 35.5429 36.8731V36.8744Z" fill="#1F9875"/>
<path d="M3.93988 8.70257L3.77659 7.97754L3.61334 8.70257C3.40691 9.63408 2.68188 10.3591 1.75042 10.5655L1.02539 10.7288L1.75042 10.892C2.68188 11.0985 3.40691 11.8235 3.61334 12.755L3.77659 13.48L3.93988 12.755C4.14632 11.8235 4.87135 11.0985 5.80281 10.892L6.52784 10.7288L5.80281 10.5655C4.87616 10.3591 4.14632 9.63408 3.93988 8.70257Z" fill="#2BCF9B"/>
<path d="M42.3364 15.454L42.1731 14.729L42.0098 15.454C41.8034 16.3855 41.0784 17.1105 40.1469 17.317L39.4219 17.4803L40.1469 17.6435C41.0784 17.85 41.8034 18.575 42.0098 19.5065L42.1731 20.2315L42.3364 19.5065C42.5428 18.575 43.2678 17.85 44.1993 17.6435L44.9243 17.4803L44.1993 17.317C43.2726 17.1105 42.5428 16.3855 42.3364 15.454Z" fill="#2BCF9B"/>
</g>
<path d="M42.7954 45.871L42.6321 45.146L42.4688 45.871C42.2624 46.8025 41.5374 47.5275 40.6059 47.734L39.8809 47.8972L40.6059 48.0605C41.5374 48.267 42.2624 48.992 42.4688 49.9235L42.6321 50.6484L42.7954 49.9235C43.0018 48.992 43.7268 48.267 44.6583 48.0605L45.3833 47.8972L44.6583 47.734C43.7316 47.5275 43.0018 46.8025 42.7954 45.871Z" fill="#2BCF9B"/>
<defs>
<clipPath id="clip0_1442_7397">
<rect width="45.0392" height="44.3044" fill="white" transform="translate(0.21875 0.841309)"/>
</clipPath>
</defs>
</svg>
