<svg width="70" height="70" viewBox="0 0 70 70" fill="none" xmlns="http://www.w3.org/2000/svg">
<circle cx="35" cy="35" r="35" fill="#009368"/>
<g clip-path="url(#clip0_589_4879)">
<path d="M49.9531 42.6761L48.5908 48.5824C48.3995 49.4173 47.6656 50.0015 46.8061 50.0015C32.0234 50.0003 20 37.9769 20 23.1937C20 22.3347 20.5841 21.6 21.4191 21.4095L27.3254 20.0472C28.1855 19.8479 29.0645 20.2944 29.4219 21.1089L32.1477 27.4664C32.4663 28.2152 32.2514 29.0876 31.6215 29.6021L28.4668 32.1351C30.4578 36.191 33.7555 39.4886 37.8125 41.4808L40.3953 38.3285C40.9044 37.6968 41.7834 37.4783 42.5322 37.8026L48.8896 40.5278C49.6543 40.93 50.1523 41.8207 49.9531 42.6761Z" fill="white"/>
</g>
<defs>
<clipPath id="clip0_589_4879">
<rect width="30" height="30" fill="white" transform="translate(20 20)"/>
</clipPath>
</defs>
</svg>
