<svg width="70" height="70" viewBox="0 0 70 70" fill="none" xmlns="http://www.w3.org/2000/svg">
<circle cx="35" cy="35" r="35" fill="#009368"/>
<g clip-path="url(#clip0_267_800)">
<path d="M34.1807 48.6913C31.242 45.0771 24.7061 36.3175 24.7061 31.3972C24.7061 25.4276 29.5453 20.5884 35.5149 20.5884C41.4823 20.5884 46.3237 25.4276 46.3237 31.3972C46.3237 36.3175 39.7371 45.0771 36.8491 48.6913C36.1567 49.5527 34.8731 49.5527 34.1807 48.6913ZM35.5149 35.0001C37.5021 35.0001 39.1178 33.3844 39.1178 31.3972C39.1178 29.41 37.5021 27.7943 35.5149 27.7943C33.5276 27.7943 31.9119 29.41 31.9119 31.3972C31.9119 33.3844 33.5276 35.0001 35.5149 35.0001Z" fill="white"/>
</g>
<defs>
<clipPath id="clip0_267_800">
<rect width="21.6176" height="28.8235" fill="white" transform="translate(24.7061 20.5884)"/>
</clipPath>
</defs>
</svg>
