<svg width="78" height="78" viewBox="0 0 78 78" fill="none" xmlns="http://www.w3.org/2000/svg">
<circle cx="39" cy="39" r="38.5" stroke="#D9D9D9"/>
<g clip-path="url(#clip0_272_2380)">
<path d="M64.0043 42.7703C62.5446 42.4032 61.065 43.2865 60.6965 44.7446C58.0627 55.1719 48.7003 62.4554 37.929 62.4554C24.9818 62.4554 14.4483 51.9219 14.4483 38.9747C14.4483 26.0275 24.9811 15.4947 37.9283 15.4947C46.422 15.4947 54.1455 20.0613 58.2966 27.3132L54.0347 28.3357L64.132 38.9747L68.2992 24.9118L63.7834 25.9959C58.8929 16.2534 48.9288 10.0464 37.9283 10.0464C21.9772 10.0464 9 23.0236 9 38.9747C9 54.9257 21.9772 67.9029 37.9283 67.9029C51.1979 67.9029 62.7324 58.9283 65.9778 46.078C66.3464 44.62 65.4623 43.138 64.0043 42.7695V42.7703Z" fill="#1F9875"/>
<path d="M26.5723 44.7464L32.8739 36.8597C33.1309 36.5435 33.2925 36.2557 33.3594 35.9987C33.4287 35.7417 33.4617 35.4916 33.4617 35.2516C33.4617 34.963 33.414 34.6845 33.3148 34.4129C33.2155 34.1413 33.0686 33.8982 32.8739 33.6873C32.6769 33.4765 32.4422 33.3018 32.1706 33.1664C31.8983 33.0295 31.5889 32.9618 31.2419 32.9618C30.6064 32.9618 30.0701 33.1695 29.6315 33.585C29.1937 33.9997 28.9444 34.5714 28.8852 35.2954H26.573C26.573 34.6468 26.6938 34.0382 26.9354 33.4727C27.1778 32.9056 27.5017 32.4108 27.9103 31.9884C28.3181 31.5652 28.7936 31.2359 29.3376 31.0013C29.8816 30.7681 30.4548 30.6504 31.0604 30.6504C31.7398 30.6504 32.3676 30.772 32.9416 31.0128C33.5156 31.2552 34.0103 31.5837 34.4251 31.9992C34.8406 32.4147 35.1699 32.9056 35.4122 33.4727C35.6531 34.0382 35.7739 34.6399 35.7739 35.2739C35.7739 35.8033 35.6977 36.3011 35.5477 36.7712C35.3961 37.239 35.1468 37.6853 34.8006 38.1069L29.6107 44.6132H35.7747V46.9246H26.5738V44.7479L26.5723 44.7464Z" fill="#1F9875"/>
<path d="M36.998 42.3463L42.3918 30.7856H44.9732L39.5133 42.3463H43.7267V37.6982H46.0396V42.3463H47.3307V44.5207H46.0396V46.9237H43.7267V44.5207H36.998V42.3463Z" fill="#1F9875"/>
<path d="M46.6599 28.6714H47.8002V31.566H47.8226C48.0011 31.3421 48.215 31.1751 48.4635 31.062C48.7136 30.9512 48.9906 30.8943 49.296 30.8943C49.5191 30.8943 49.7431 30.9381 49.9662 31.0235C50.1893 31.1097 50.3901 31.2336 50.5687 31.3982C50.7472 31.5629 50.8941 31.7668 51.0103 32.013C51.1257 32.2592 51.1834 32.5416 51.1834 32.8617V36.6258H50.0447V33.2518C50.0447 32.8648 49.9385 32.5655 49.7254 32.3539C49.5138 32.1407 49.2468 32.0338 48.9275 32.0338C48.6081 32.0338 48.3304 32.14 48.1172 32.3539C47.9057 32.5655 47.7995 32.8648 47.7995 33.2518V36.6258H46.6592V28.6722L46.6599 28.6714Z" fill="#1F9875"/>
<path d="M37.3499 21.4749C37.2399 21.4749 37.1514 21.3872 37.1514 21.2764V18.5296C37.1514 18.4203 37.2399 18.3311 37.3499 18.3311C37.4599 18.3311 37.5484 18.4203 37.5484 18.5296V21.2764C37.5484 21.3865 37.4599 21.4749 37.3499 21.4749Z" fill="#1F9875"/>
<path d="M37.3496 21.8391C37.0387 21.8391 36.7871 21.5867 36.7871 21.2766V18.5297C36.7871 18.2189 37.0395 17.9673 37.3496 17.9673C37.6596 17.9673 37.912 18.2197 37.912 18.5297V21.2766C37.912 21.5875 37.6596 21.8391 37.3496 21.8391Z" fill="#1F9875"/>
<path d="M37.3499 59.6175C37.2399 59.6175 37.1514 59.5283 37.1514 59.419V56.6721C37.1514 56.5629 37.2399 56.4736 37.3499 56.4736C37.4599 56.4736 37.5484 56.5629 37.5484 56.6721V59.419C37.5484 59.5283 37.4599 59.6175 37.3499 59.6175Z" fill="#1F9875"/>
<path d="M37.3496 59.9821C37.0387 59.9821 36.7871 59.7298 36.7871 59.4197V56.6728C36.7871 56.3627 37.0395 56.1104 37.3496 56.1104C37.6596 56.1104 37.912 56.3627 37.912 56.6728V59.4197C37.912 59.7298 37.6596 59.9821 37.3496 59.9821Z" fill="#1F9875"/>
<path d="M47.2226 23.0386C47.2049 23.0386 47.1864 23.0347 47.1703 23.0239C47.1241 22.9962 47.1087 22.9347 47.1379 22.8885L47.982 21.5143C48.0112 21.4666 48.072 21.4535 48.1174 21.4828C48.1636 21.5105 48.179 21.572 48.1505 21.6182L47.3057 22.9924C47.2872 23.0232 47.2549 23.0386 47.2218 23.0386H47.2226Z" fill="#1F9875"/>
<path d="M47.2222 23.4032H47.1183L46.9775 23.334C46.8721 23.2686 46.7974 23.1631 46.7697 23.0423C46.742 22.9223 46.7628 22.7977 46.8298 22.693L47.6707 21.3227C47.7561 21.1834 47.9039 21.1011 48.0655 21.1011H48.1716L48.3132 21.1742C48.5263 21.3042 48.5948 21.5904 48.4609 21.8082L47.6161 23.1824C47.5322 23.3201 47.3845 23.4024 47.2214 23.4024L47.2222 23.4032Z" fill="#1F9875"/>
<path d="M26.6338 56.484C26.6161 56.484 26.5976 56.4794 26.5822 56.4694C26.5353 56.4417 26.5214 56.3802 26.5499 56.334L27.394 54.9613C27.4217 54.9144 27.4832 54.9005 27.5301 54.9282C27.5763 54.9575 27.5909 55.0183 27.5617 55.0652L26.7169 56.4371C26.6984 56.4679 26.6653 56.484 26.633 56.484H26.6338Z" fill="#1F9875"/>
<path d="M26.6341 56.8487H26.5295L26.3887 56.7786C26.2879 56.7171 26.2133 56.6147 26.184 56.4947C26.1548 56.3739 26.1748 56.2485 26.2402 56.1423L27.0843 54.7697C27.165 54.635 27.3174 54.5488 27.479 54.5488H27.579L27.7183 54.615C27.9414 54.7573 28.006 55.0351 27.8745 55.2536L27.0289 56.6278C26.9465 56.7632 26.7949 56.8487 26.6349 56.8487H26.6341Z" fill="#1F9875"/>
<path d="M53.7845 29.8797C53.7499 29.8797 53.7168 29.862 53.6983 29.829C53.6714 29.782 53.6883 29.7212 53.7368 29.6943L55.1426 28.9049C55.1887 28.8779 55.2503 28.8949 55.278 28.9433C55.3049 28.9903 55.288 29.0511 55.2403 29.078L53.833 29.8667C53.8184 29.8759 53.8014 29.879 53.7853 29.879L53.7845 29.8797Z" fill="#1F9875"/>
<path d="M53.7841 30.2439C53.6179 30.2439 53.4633 30.1538 53.381 30.01C53.3186 29.8984 53.304 29.7722 53.3386 29.6529C53.3725 29.5337 53.4517 29.4344 53.5618 29.3752L55.0475 28.5411L55.1907 28.5288C55.3584 28.5288 55.5131 28.6196 55.5954 28.7666C55.6569 28.8743 55.6716 29.0005 55.6369 29.1205C55.6031 29.2405 55.5246 29.339 55.4153 29.3983L53.928 30.2323L53.7849 30.2446L53.7841 30.2439Z" fill="#1F9875"/>
<path d="M19.5082 49.058C19.4735 49.058 19.4397 49.0403 19.422 49.0072C19.3951 48.9595 19.412 48.8987 19.4597 48.8725L20.8677 48.0854C20.917 48.0585 20.977 48.0762 21.0024 48.1231C21.0293 48.1716 21.0124 48.2316 20.9647 48.2585L19.5574 49.0449C19.5413 49.0541 19.5259 49.058 19.5089 49.058H19.5082Z" fill="#1F9875"/>
<path d="M19.5089 49.4217C19.3396 49.4217 19.1842 49.3302 19.1034 49.1824C19.0433 49.0747 19.0287 48.9493 19.0634 48.83C19.098 48.71 19.1765 48.6115 19.2849 48.553L20.773 47.7213L20.9177 47.709C21.0877 47.709 21.2431 47.8013 21.3239 47.9514C21.3816 48.0545 21.3963 48.1806 21.3624 48.3007C21.3278 48.4207 21.2493 48.5192 21.14 48.5784L19.652 49.4094L19.5081 49.4225L19.5089 49.4217Z" fill="#1F9875"/>
<path d="M54.7597 49.7935C54.742 49.7935 54.7236 49.7889 54.7082 49.7797L53.3332 48.9341C53.2871 48.9048 53.2724 48.8433 53.3001 48.7979C53.3286 48.7509 53.3894 48.7363 53.4363 48.7656L54.8121 49.6112C54.8582 49.6389 54.8736 49.7004 54.8444 49.7466C54.8259 49.7774 54.7928 49.7935 54.7597 49.7935Z" fill="#1F9875"/>
<path d="M54.7599 50.157H54.6553L54.5145 50.087L53.1418 49.2422C52.9256 49.1091 52.8556 48.8244 52.9879 48.6074C53.0733 48.4666 53.2211 48.3843 53.3834 48.3843H53.4888L53.6296 48.4551L55.0031 49.2984C55.2216 49.4345 55.2893 49.7208 55.1546 49.937C55.0731 50.0724 54.9215 50.157 54.7599 50.157Z" fill="#1F9875"/>
<path d="M21.312 29.2041C21.2943 29.2041 21.2759 29.1994 21.2605 29.1894L19.8871 28.3438C19.8409 28.3154 19.8255 28.2538 19.8547 28.2076C19.8824 28.1615 19.944 28.1461 19.9909 28.1761L21.3636 29.0209C21.4105 29.0494 21.4251 29.111 21.3959 29.1571C21.3774 29.1879 21.3444 29.2041 21.312 29.2041Z" fill="#1F9875"/>
<path d="M21.3124 29.5679H21.2077L21.0669 29.4979L19.6966 28.6538C19.5904 28.5884 19.5165 28.4861 19.488 28.3653C19.4596 28.2445 19.4803 28.1191 19.5458 28.0144C19.6258 27.8813 19.7773 27.7959 19.9389 27.7959H20.042L20.1821 27.8644L21.5563 28.71C21.6586 28.7708 21.734 28.8739 21.7632 28.9947C21.7925 29.1139 21.7725 29.2424 21.7078 29.3471C21.6255 29.4825 21.4739 29.5679 21.3131 29.5679H21.3124Z" fill="#1F9875"/>
<path d="M47.3317 56.9163C47.2978 56.9163 47.2647 56.8979 47.2463 56.8648L46.4591 55.459C46.4322 55.4113 46.4491 55.3513 46.4961 55.3244C46.5422 55.2967 46.603 55.3136 46.6307 55.3613L47.4178 56.7686C47.4448 56.8148 47.4278 56.8763 47.3801 56.9032C47.3655 56.9117 47.3486 56.9163 47.3317 56.9163Z" fill="#1F9875"/>
<path d="M47.3319 57.2803C47.1665 57.2803 47.0126 57.1902 46.9295 57.0448L46.1408 55.636C46.0169 55.4136 46.0954 55.132 46.3147 55.0066L46.3993 54.9589L46.5432 54.9458C46.7079 54.9458 46.8625 55.0343 46.9464 55.1774L47.7366 56.5901C47.7974 56.6963 47.8128 56.8217 47.7789 56.9402C47.7458 57.0594 47.6681 57.1587 47.5596 57.2202L47.4765 57.2672L47.3319 57.2803Z" fill="#1F9875"/>
<path d="M28.1521 22.6423C28.1175 22.6423 28.0844 22.6238 28.0659 22.5915L27.2773 21.1819C27.2503 21.1357 27.268 21.0742 27.3157 21.048C27.3619 21.0195 27.4219 21.0365 27.4504 21.0857L28.2383 22.4945C28.2652 22.5422 28.2483 22.6023 28.2006 22.6292C28.1852 22.6376 28.169 22.6415 28.1529 22.6415L28.1521 22.6423Z" fill="#1F9875"/>
<path d="M28.1525 23.007C27.9879 23.007 27.8332 22.9177 27.7501 22.7738L26.9591 21.3596C26.8984 21.2519 26.883 21.1265 26.9176 21.0072C26.9514 20.8872 27.0307 20.7879 27.14 20.7279L27.2223 20.6833L27.3639 20.6694C27.5285 20.6694 27.6824 20.7595 27.7655 20.9033L28.5557 22.3168C28.6157 22.4214 28.6319 22.5461 28.5988 22.6661C28.5657 22.7861 28.4872 22.8862 28.3787 22.9477L28.2956 22.9939L28.1518 23.0062L28.1525 23.007Z" fill="#1F9875"/>
<path d="M57.7965 39.1731H55.0481C54.9381 39.1731 54.8496 39.0846 54.8496 38.9754C54.8496 38.8661 54.9381 38.7769 55.0481 38.7769H57.7965C57.905 38.7769 57.9935 38.8653 57.9935 38.9754C57.9935 39.0854 57.905 39.1731 57.7965 39.1731Z" fill="#1F9875"/>
<path d="M57.7962 39.5377H55.0478C54.737 39.5377 54.4854 39.2853 54.4854 38.976C54.4854 38.6667 54.7377 38.4136 55.0478 38.4136H57.7962C58.1055 38.4136 58.3571 38.6659 58.3571 38.976C58.3571 39.2861 58.1048 39.5377 57.7962 39.5377Z" fill="#1F9875"/>
<path d="M19.6522 39.1731H16.9046C16.7945 39.1731 16.7061 39.0846 16.7061 38.9754C16.7061 38.8661 16.7945 38.7769 16.9046 38.7769H19.6522C19.7615 38.7769 19.8507 38.8653 19.8507 38.9754C19.8507 39.0854 19.7615 39.1731 19.6522 39.1731Z" fill="#1F9875"/>
<path d="M19.6519 39.5377H16.9043C16.5934 39.5377 16.3418 39.2853 16.3418 38.976C16.3418 38.6667 16.5942 38.4136 16.9043 38.4136H19.6519C19.9627 38.4136 20.2143 38.6659 20.2143 38.976C20.2143 39.2861 19.962 39.5377 19.6519 39.5377Z" fill="#1F9875"/>
</g>
<defs>
<clipPath id="clip0_272_2380">
<rect width="59.3" height="57.8573" fill="white" transform="translate(9 10.0464)"/>
</clipPath>
</defs>
</svg>
