<svg width="79" height="78" viewBox="0 0 79 78" fill="none" xmlns="http://www.w3.org/2000/svg">
<circle cx="39.3184" cy="39" r="38.5" stroke="#D9D9D9"/>
<g clip-path="url(#clip0_272_2401)">
<path d="M62.73 25.9372V51.6742C62.7068 51.7291 62.6764 51.7827 62.6605 51.84C62.1545 53.675 60.967 54.6041 59.0942 54.6053C45.9373 54.6077 32.7805 54.6065 19.6236 54.6053C19.5175 54.6053 19.4102 54.6028 19.3042 54.5992C17.7277 54.5455 16.3865 53.4153 16.0829 51.8693C16.028 51.5876 16.0049 51.2962 16.0049 51.0097C16.0024 42.8725 16.0049 34.7352 16 26.598C16 25.3714 16.4511 24.379 17.4387 23.6474C18.113 23.1463 18.8872 23 19.7175 23C32.8134 23.0073 45.9093 23.0049 59.0052 23.0049C59.1418 23.0049 59.2795 23.0049 59.4161 23.0098C60.8646 23.0561 62.1082 23.9912 62.5581 25.3751C62.6191 25.5616 62.6739 25.7494 62.7312 25.9359L62.73 25.9372ZM24.3787 32.4906C23.4215 32.4906 22.4657 32.4857 21.5086 32.4918C20.7234 32.4967 20.3673 32.8491 20.3637 33.6355C20.3576 34.9876 20.3576 36.3385 20.3637 37.6907C20.3673 38.4698 20.7258 38.8465 21.5012 38.8514C23.4142 38.8624 25.3284 38.8624 27.2414 38.8514C28.0144 38.8465 28.3948 38.46 28.3997 37.698C28.4083 36.3459 28.4083 34.9949 28.3997 33.6428C28.3948 32.8722 28.0157 32.4967 27.25 32.4906C26.2929 32.4845 25.337 32.4894 24.3799 32.4894L24.3787 32.4906ZM29.6348 50.0611C32.2647 50.0611 34.8959 50.0611 37.5258 50.0611C38.4317 50.0611 38.9145 49.7027 38.9011 49.0431C38.8877 48.3981 38.4122 48.0531 37.5355 48.0531C32.2599 48.0531 26.9842 48.0531 21.7073 48.0531C21.5256 48.0531 21.3403 48.0531 21.1635 48.0872C20.66 48.1847 20.3515 48.5895 20.3673 49.1004C20.3868 49.6966 20.805 50.0563 21.5159 50.0575C24.2226 50.0611 26.9281 50.0587 29.6348 50.0599V50.0611ZM51.8836 30.8873C52.9322 30.8873 53.9819 30.8873 55.0305 30.8873C55.8364 30.8873 56.6423 30.8983 57.447 30.8727C57.9603 30.8568 58.3285 30.4618 58.3602 29.968C58.3944 29.4547 58.1054 29.0462 57.6055 28.9219C57.4604 28.8853 57.3056 28.8743 57.1544 28.8743C53.6576 28.8719 50.162 28.8719 46.6652 28.8743C46.4848 28.8743 46.2982 28.8938 46.1276 28.9463C45.6642 29.0889 45.4082 29.512 45.4606 30.0094C45.5094 30.4691 45.852 30.819 46.3202 30.8714C46.486 30.8897 46.6543 30.8861 46.8213 30.8861C48.5087 30.8861 50.1962 30.8861 51.8836 30.8861V30.8873ZM41.6993 45.5877C42.4442 45.5877 43.1892 45.5975 43.9341 45.5853C44.5889 45.5743 45.0132 45.1805 45.0229 44.6062C45.0339 44.0161 44.5998 43.5857 43.9268 43.5784C42.4515 43.5638 40.9762 43.565 39.501 43.5784C38.8352 43.5845 38.3792 44.0173 38.3817 44.5916C38.3841 45.172 38.8316 45.5768 39.5083 45.5865C40.2386 45.5963 40.9677 45.589 41.698 45.589L41.6993 45.5877ZM23.6447 45.5877C24.3896 45.5877 25.1346 45.5963 25.8795 45.5853C26.5696 45.5755 26.9878 45.1854 26.9854 44.5819C26.983 44.0052 26.5648 43.5857 25.9161 43.5796C24.4262 43.5638 22.9363 43.5638 21.4464 43.5796C20.7709 43.587 20.3539 44.01 20.3661 44.6148C20.3783 45.1988 20.7892 45.5755 21.4561 45.5865C22.1852 45.5987 22.9156 45.589 23.6447 45.589V45.5877ZM32.6842 45.5877C33.4291 45.5877 34.1741 45.5975 34.919 45.5853C35.5811 45.5743 35.9932 45.189 36.0005 44.605C36.009 44.0027 35.5896 43.5857 34.9093 43.5796C33.4352 43.565 31.9599 43.5674 30.4846 43.5796C29.8092 43.5845 29.3739 44.0027 29.3763 44.5941C29.3788 45.1878 29.808 45.5792 30.4944 45.589C31.2235 45.5987 31.9538 45.5914 32.6842 45.5902V45.5877ZM50.7131 45.5877C51.4581 45.5877 52.2043 45.5975 52.9492 45.5853C53.5966 45.5743 54.0331 45.1732 54.0465 44.6087C54.0612 44.0332 53.6064 43.5857 52.9456 43.5784C51.4703 43.5638 49.995 43.565 48.5197 43.5784C47.8455 43.5845 47.4004 44.0064 47.4017 44.5892C47.4017 45.172 47.8467 45.5768 48.5234 45.5865C49.2537 45.5975 49.9828 45.589 50.7131 45.589V45.5877Z" fill="#1F9875"/>
</g>
<defs>
<clipPath id="clip0_272_2401">
<rect width="46.73" height="31.6053" fill="white" transform="translate(16 23)"/>
</clipPath>
</defs>
</svg>
