<svg width="3199" height="3686" viewBox="0 0 3199 3686" fill="none" xmlns="http://www.w3.org/2000/svg">
<g clip-path="url(#clip0_537_3086)">
<path d="M165.554 2955.18L170.559 2958.69C1009.53 3208.96 1162.81 2813.1 1315.35 2418.94C1386.81 2234.27 1458.14 2049.97 1599.92 1933C1702.71 1848.18 1808.61 1852.41 1934.33 1857.42C2057.05 1862.3 2198.63 1867.94 2374.72 1792.57C2459.31 1756.37 2549.33 1704.63 2639.6 1642.75L2642.88 1638.06C2551.25 1701.23 2459.74 1754.01 2373.88 1790.76C2198.21 1865.95 2056.87 1860.32 1934.35 1855.44C1808.21 1850.42 1701.97 1846.18 1598.6 1931.47C1456.46 2048.74 1385.04 2233.27 1313.49 2418.18C1160.94 2812.37 1007.71 3208.3 165.554 2955.18ZM150.504 2944.63L155.509 2948.14C994.481 3198.41 1147.76 2802.54 1300.3 2408.38C1371.76 2223.71 1443.09 2039.41 1584.87 1922.44C1687.66 1837.63 1793.56 1841.85 1919.28 1846.86C2042 1851.74 2183.58 1857.39 2359.67 1782.02C2458.11 1739.88 2563.92 1676.72 2668.88 1601L2672.41 1595.98C2566.01 1673.13 2458.62 1737.49 2358.83 1780.21C2183.16 1855.4 2041.81 1849.78 1919.3 1844.89C1793.15 1839.87 1686.91 1835.63 1583.55 1920.92C1441.4 2038.19 1369.98 2222.72 1298.43 2407.63C1145.89 2801.82 992.661 3197.74 150.504 2944.63ZM135.455 2934.07L140.46 2937.58C979.431 3187.85 1132.71 2791.99 1285.25 2397.82C1356.71 2213.15 1428.04 2028.86 1569.82 1911.89C1672.61 1827.07 1778.51 1831.3 1904.23 1836.3C2026.95 1841.19 2168.53 1846.83 2344.62 1771.46C2457.68 1723.07 2580.47 1646.92 2700.53 1555.89L2704.3 1550.52C2582.77 1643.15 2458.27 1720.65 2343.77 1769.66C2168.1 1844.85 2026.76 1839.23 1904.24 1834.34C1778.1 1829.32 1671.86 1825.08 1568.49 1910.37C1426.35 2027.64 1354.93 2212.18 1283.38 2397.08C1130.84 2791.26 977.612 3187.18 135.455 2934.07ZM120.405 2923.51L125.41 2927.02C964.382 3177.29 1117.66 2781.43 1270.2 2387.27C1341.66 2202.59 1412.99 2018.3 1554.77 1901.33C1657.56 1816.51 1763.46 1820.74 1889.18 1825.74C2011.9 1830.63 2153.48 1836.27 2329.57 1760.9C2458.21 1705.84 2599.43 1614.88 2734.9 1506.91L2738.98 1501.08C2602.02 1610.82 2458.91 1703.38 2328.73 1759.09C2153.06 1834.29 2011.71 1828.66 1889.2 1823.78C1763.05 1818.75 1656.81 1814.52 1553.45 1899.81C1411.3 2017.08 1339.89 2201.61 1268.33 2386.52C1115.79 2780.7 962.554 3176.62 120.405 2923.51ZM105.356 2912.95L110.361 2916.46C949.332 3166.73 1102.61 2770.87 1255.15 2376.71C1326.61 2192.04 1397.94 2007.74 1539.72 1890.77C1642.51 1805.95 1748.41 1810.18 1874.13 1815.19C1996.85 1820.07 2138.43 1825.71 2314.52 1750.34C2459.93 1688.11 2621.44 1579.98 2772.52 1453.27L2777.02 1446.86C2624.41 1575.57 2460.79 1685.56 2313.68 1748.54C2138.01 1823.73 1996.67 1818.1 1874.15 1813.22C1748 1808.19 1641.76 1803.96 1538.4 1889.25C1396.25 2006.52 1324.84 2191.05 1253.28 2375.96C1100.74 2770.14 947.504 3166.06 105.356 2912.95ZM90.306 2902.4L95.311 2905.91C934.283 3156.18 1087.56 2760.31 1240.1 2366.15C1311.56 2181.48 1382.89 1997.18 1524.67 1880.21C1627.46 1795.4 1733.36 1799.62 1859.08 1804.63C1981.8 1809.51 2123.38 1815.15 2299.47 1739.79C2463.28 1669.67 2647.51 1541.34 2814.25 1393.79L2819.24 1386.67C2650.98 1536.46 2464.32 1667.06 2298.62 1737.99C2122.95 1813.18 1981.61 1807.55 1859.09 1802.67C1732.95 1797.64 1626.71 1793.41 1523.34 1878.7C1381.2 1995.97 1309.78 2180.5 1238.23 2365.41C1085.69 2759.59 932.454 3155.5 90.306 2902.4ZM75.2564 2891.84L80.2615 2895.35C919.233 3145.62 1072.51 2749.76 1225.05 2355.59C1296.51 2170.92 1367.84 1986.63 1509.62 1869.66C1612.41 1784.84 1718.31 1789.07 1844.03 1794.07C1966.75 1798.96 2108.33 1804.6 2284.42 1729.23C2468.92 1650.26 2679.33 1497.42 2861.48 1326.47L2867.18 1318.34C2683.56 1491.85 2470.27 1647.51 2283.58 1727.42C2107.91 1802.61 1966.57 1796.99 1844.05 1792.11C1717.9 1787.08 1611.66 1782.85 1508.3 1868.13C1366.15 1985.41 1294.74 2169.94 1223.18 2354.84C1070.65 2749.03 917.405 3144.95 75.2478 2891.83L75.2564 2891.84ZM60.2069 2881.28L65.2119 2884.79C904.184 3135.06 1057.46 2739.2 1210 2345.04C1281.46 2160.36 1352.79 1976.07 1494.57 1859.1C1597.36 1774.28 1703.26 1778.51 1828.98 1783.51C1951.7 1788.4 2093.28 1794.04 2269.37 1718.67C2467.59 1633.83 2695.71 1463.75 2886.56 1277.52C2896.8 1267.52 2906.93 1257.48 2916.95 1247.41L2923.83 1237.61C2911.12 1250.5 2898.22 1263.34 2885.14 1276.1C2694.44 1462.19 2466.53 1632.12 2268.53 1716.86C2092.86 1792.05 1951.52 1786.43 1829 1781.55C1702.85 1776.52 1596.61 1772.29 1493.25 1857.57C1351.1 1974.85 1279.69 2159.38 1208.13 2344.29C1055.6 2738.47 902.355 3134.39 60.1983 2881.27L60.2069 2881.28ZM45.1573 2870.72L50.1623 2874.23C889.134 3124.5 1042.41 2728.64 1194.95 2334.48C1266.41 2149.81 1337.74 1965.51 1479.52 1848.54C1582.31 1763.72 1688.21 1767.95 1813.93 1772.95C1936.65 1777.84 2078.23 1783.48 2254.32 1708.11C2452.54 1623.28 2680.66 1453.19 2871.51 1266.96C2912.24 1227.22 2951.26 1186.73 2987.96 1146.19L2997.56 1132.5C2957.7 1177.15 2914.93 1221.8 2870.08 1265.55C2679.38 1451.64 2451.48 1621.57 2253.47 1706.32C2077.8 1781.51 1936.46 1775.88 1813.94 1771C1687.8 1765.97 1581.56 1761.74 1478.19 1847.03C1336.05 1964.3 1264.63 2148.83 1193.08 2333.74C1040.54 2727.91 887.306 3123.83 45.1487 2870.72L45.1573 2870.72ZM3177.73 832.063L3176.09 830.908C3103.04 958.724 2981.82 1106.03 2839.99 1244.42C2649.3 1430.51 2421.38 1600.43 2223.39 1685.18C2047.72 1760.37 1906.37 1754.75 1783.85 1749.87C1657.71 1744.84 1551.47 1740.61 1448.1 1825.89C1305.96 1943.17 1234.54 2127.7 1162.99 2312.61C1010.44 2706.79 857.207 3102.71 15.0496 2849.6L20.0546 2853.11C859.026 3103.38 1012.31 2707.52 1164.84 2313.36C1236.31 2128.69 1307.64 1944.39 1449.41 1827.42C1552.21 1742.6 1658.1 1746.83 1783.82 1751.83C1906.55 1756.72 2048.12 1762.36 2224.21 1686.99C2422.44 1602.15 2650.55 1432.07 2841.4 1245.84C2983.27 1107.41 3104.55 960.032 3177.72 832.065L3177.73 832.063ZM3192.78 842.62L3191.14 841.466C3118.09 969.281 2996.87 1116.59 2855.04 1254.98C2664.35 1441.06 2436.43 1610.99 2238.44 1695.74C2062.77 1770.93 1921.42 1765.31 1798.9 1760.42C1672.76 1755.4 1566.52 1751.16 1463.15 1836.45C1321.01 1953.72 1249.59 2138.26 1178.04 2323.16C1025.49 2717.35 872.256 3113.27 30.0991 2860.16L35.1042 2863.67C874.076 3113.94 1027.36 2718.08 1179.89 2323.92C1251.36 2139.24 1322.68 1954.95 1464.46 1837.98C1567.26 1753.16 1673.15 1757.39 1798.87 1762.39C1921.6 1767.28 2063.17 1772.92 2239.26 1697.55C2437.49 1612.71 2665.6 1442.63 2856.45 1256.4C2998.32 1117.97 3119.6 970.59 3192.77 842.623L3192.78 842.62ZM0 2839.04C842.157 3092.16 995.389 2696.23 1147.94 2302.05C1219.49 2117.14 1290.91 1932.61 1433.06 1815.34C1536.42 1730.05 1642.66 1734.28 1768.81 1739.31C1891.32 1744.19 2032.66 1749.82 2208.34 1674.63C2406.33 1589.87 2634.25 1419.95 2824.95 1233.86C2966.77 1095.47 3087.99 948.166 3161.04 820.351L3162.68 821.505C3089.52 949.473 2968.24 1096.85 2826.37 1235.28C2635.51 1421.52 2407.4 1591.59 2209.18 1676.43C2033.09 1751.8 1891.51 1746.16 1768.79 1741.27C1643.07 1736.27 1537.17 1732.05 1434.38 1816.86C1292.6 1933.83 1221.28 2118.13 1149.81 2302.8C997.257 2696.96 843.977 3092.82 5.00504 2842.56L0 2839.04Z" fill="#2BCF9B"/>
</g>
<defs>
<clipPath id="clip0_537_3086">
<rect width="3467.97" height="1473.87" fill="white" transform="translate(0 2839.04) rotate(-54.9495)"/>
</clipPath>
</defs>
</svg>
